<svg xmlns="http://www.w3.org/2000/svg" xmlns:xlink="http://www.w3.org/1999/xlink" width="600" height="12" viewBox="0 0 600 12">
  <defs>
    <linearGradient id="linear-gradient" y1="0.5" x2="1" y2="0.5" gradientUnits="objectBoundingBox">
      <stop offset="0" stop-color="#bcbdbf" stop-opacity="0.502"/>
      <stop offset="0.098" stop-color="#d8d8df" stop-opacity="0.502"/>
      <stop offset="0.888" stop-color="#d8d8df" stop-opacity="0.502"/>
      <stop offset="1" stop-color="#adaabd" stop-opacity="0.502"/>
    </linearGradient>
    <linearGradient id="linear-gradient-2" x1="0.5" x2="0.5" y2="1" gradientUnits="objectBoundingBox">
      <stop offset="0" stop-color="#fff"/>
      <stop offset="1" stop-color="#cdcbd5"/>
    </linearGradient>
  </defs>
  <g id="case" transform="translate(0 -327.177)">
    <path id="notch" d="M0,0H107a0,0,0,0,1,0,0V1.714A1.286,1.286,0,0,1,105.714,3H3A3,3,0,0,1,0,0V0A0,0,0,0,1,0,0Z" transform="translate(247 327.177)" fill="url(#linear-gradient)"/>
    <path id="bottom" d="M301,9V0L600,1.125S585.614,9,504,9ZM96,9C14.424,9,0,1.125,0,1.125L301,0V9Z" transform="translate(0 330.177)" fill="url(#linear-gradient-2)"/>
  </g>
</svg>
