<svg xmlns="http://www.w3.org/2000/svg" width="359.327" height="211.399" viewBox="0 0 359.327 211.399">
  <g id="illustration-2" transform="translate(-794.675 -487.147)">
    <path id="path16" d="M0,0V31.705L-61.828,31.7H-62.5l8.631-4.7L-4.361,0Z" transform="translate(1012.069 665.488)" fill="#6f7cab"/>
    <g id="g26" transform="translate(982.524 622.924)">
      <path id="path28" d="M0,0H-56.4l-9.605,7.968h-4.02q-6.156-41.238,9.172-70.836c1.013-.791,4.344-1.968,8.989-3.156v-.008c11.115-2.844,29.719-5.779,41.955-3.653.847.147,1.665.313,2.448.516,3.275,4.885,5.263,15.7,6.348,30.407C-.295-27.74.019-14.537,0,0" fill="#ffd047"/>
    </g>
    <g id="g30" transform="translate(826.788 493.76)">
      <path id="path32" d="M0,0C-7.471,2.387-8.337,16.629-9.068,31.12L-22.2,119.693h6.673l20.88-90.32-2.893-.56,3.2-12.1C7.2,9.36,4.881,3.76,0,0" fill="#ffb73a"/>
    </g>
    <g id="g34" transform="translate(832.144 523.134)">
      <path id="path36" d="M0,0,9.153,1.773-11.771,90.32H-20.88Z" fill="#da8f2b"/>
    </g>
    <g id="g38" transform="translate(830.944 605.792)">
      <path id="path40" d="M0,0-14.252,30.887c-2.189,4.324-4.581,6.485-7.159,6.513-2.751.028-5.7-2.355-8.877-7.093l-5.236-10.617a7.206,7.206,0,0,1-.745-3.184,7.133,7.133,0,0,1,.727-3.137L-32.46,7.02l4.076-.064c0-5.981,8.152-5.981,8.152,0H-6.947Z" fill="#3e3e6f"/>
    </g>
    <g id="g42" transform="translate(858.446 498.786)">
      <path id="path44" d="M0,0-20.893-5.3l.771-3.04L.771-3.04Z" fill="#6f7cab"/>
    </g>
    <g id="g46" transform="translate(953.081 555.64)">
      <path id="path48" d="M0,0V52.489C-13.1,60-26.617,63.871-40.583,63.741-39.589,45-40,25.872-32.175,9.016A8.237,8.237,0,0,1-29.8,6.027a7.578,7.578,0,0,1,.976-.663,7.824,7.824,0,0,1,2.7-.967Z" fill="#6f7cab"/>
    </g>
    <g id="g50" transform="translate(1089.245 698.546)">
      <path id="path52" d="M0,0H-196.177a25.363,25.363,0,0,1-25.363-25.363,25.363,25.363,0,0,1,25.363-25.363H0A25.364,25.364,0,0,1,25.363-25.363,25.364,25.364,0,0,1,0,0" fill="#6f7cab"/>
    </g>
    <g id="g54" transform="translate(893.067 691.185)">
      <path id="path56" d="M0,0A18.022,18.022,0,0,1-18-18,18.022,18.022,0,0,1,0-36H196.177a18.023,18.023,0,0,1,18,18,18.023,18.023,0,0,1-18,18Z" fill="#222a47"/>
    </g>
    <g id="g58" transform="translate(950.846 564.068)">
      <path id="path60" d="M0,0V39.287A6.093,6.093,0,0,1-3.291,44.72c-8.456,4.311-18.061,6.972-28.365,8.581a3.512,3.512,0,0,1-1.484-.069,3.724,3.724,0,0,1-2.787-3.809q.084-1.574.168-3.108c.112-1.987.224-3.933.349-5.837a156.012,156.012,0,0,1,2.423-19.853A48.08,48.08,0,0,1-29.164,8.751,11.471,11.471,0,0,1-22.08,2.94L-3.333-2.492A2.6,2.6,0,0,1,0,0" fill="#73d2ff"/>
    </g>
    <g id="g62" transform="translate(973.947 587.52)">
      <path id="path64" d="M0,0C-1.415,11.019-8.961,16.507-19.069,19.657V-31.88L-8.737-32.4a4.454,4.454,0,0,1,3.291,1.232A4.35,4.35,0,0,1-4.34-29.388c.364,1.12.7,2.253,1.007,3.416.645,2.311,1.191,4.691,1.625,7.155A97.384,97.384,0,0,1-.239-6.609C-.1-4.452-.028-2.255,0,0" fill="#73d2ff"/>
    </g>
    <g id="g66" transform="translate(919.306 568.424)">
      <path id="path68" d="M0,0H-8.985V-1.7H.688Z" fill="#222a47"/>
    </g>
    <g id="g70" transform="translate(909.998 579.784)">
      <path id="path72" d="M0,0H-2.3A2.5,2.5,0,0,1-4.8-2.5v-8.067a2.5,2.5,0,0,1,2.5-2.5H0a2.5,2.5,0,0,1,2.5,2.5V-2.5A2.5,2.5,0,0,1,0,0" fill="#222a47"/>
    </g>
    <g id="g74" transform="translate(911.168 557.033)">
      <path id="path76" d="M0,0,2.56-2.56H6.533L8.825-.268V3.705l-2.56,2.56Z" fill="#222a47"/>
    </g>
    <g id="g78" transform="translate(924.256 561.004)">
      <path id="path80" d="M0,0A7.608,7.608,0,0,0-.975.663L-6.689-5.052l.82-.817Z" fill="#222a47"/>
    </g>
    <g id="g82" transform="translate(953.081 609.865)">
      <path id="path84" d="M0,0V11.615" fill="none" stroke="#ffeb6f" stroke-linecap="round" stroke-miterlimit="10" stroke-width="0.667"/>
    </g>
    <path id="path86" d="M195.773-410.61h-1.648V-418.4h1.648Z" transform="translate(756 1030.665)" fill="#ffeb6f"/>
    <g id="g88" transform="translate(974.402 616.834)">
      <path id="path90" d="M0,0A3.3,3.3,0,0,1-3.3,3.3,3.3,3.3,0,0,1-6.595,0,3.3,3.3,0,0,1-3.3-3.3,3.3,3.3,0,0,1,0,0" fill="#ffeb6f"/>
    </g>
    <g id="g92" transform="translate(1048.389 622.924)">
      <path id="path94" d="M0,0-7.82,4.26H-127.4L-122.265,0H0Z" fill="#6f7cab"/>
    </g>
    <g id="g96" transform="translate(914.426 621.073)">
      <path id="path98" d="M0,0V4.748C4.285,5.184,7.056,3.252,8.984,0Z" fill="#ffb73a"/>
    </g>
    <g id="g100" transform="translate(920.991 627.183)">
      <path id="path102" d="M0,0-4.475,3.709H182.078V.007Z" fill="#3e3e6f"/>
    </g>
    <g id="g104" transform="translate(953.081 624.05)">
      <path id="path106" d="M0,0V1.8" fill="none" stroke="#222a47" stroke-linecap="round" stroke-miterlimit="10" stroke-width="0.667"/>
    </g>
    <g id="g108" transform="translate(982.528 624.05)">
      <path id="path110" d="M0,0V1.8" fill="none" stroke="#222a47" stroke-linecap="round" stroke-miterlimit="10" stroke-width="0.667"/>
    </g>
    <g id="g112" transform="translate(1040.57 624.05)">
      <path id="path114" d="M0,0V1.8" fill="none" stroke="#222a47" stroke-linecap="round" stroke-miterlimit="10" stroke-width="0.667"/>
    </g>
    <g id="g116" transform="translate(1103.069 595.488)">
      <path id="path118" d="M0,0V-11.321H-62.5V27.436h7.82L-4.361,0Z" fill="#ffd047"/>
    </g>
    <g id="g120" transform="translate(1040.57 584.162)">
      <path id="path122" d="M0,0V38.763H-58.047C-58.028,24.225-58.34,11.023-59.16,0Z" fill="#ffeb6f"/>
    </g>
    <g id="g124" transform="translate(967.3 605.595)">
      <path id="path126" d="M0,0H12.987" fill="none" stroke="#ffb73a" stroke-linecap="round" stroke-miterlimit="10" stroke-width="1"/>
    </g>
    <g id="g128" transform="translate(984.213 605.595)">
      <path id="path130" d="M0,0H53.987" fill="none" stroke="#ffb73a" stroke-linecap="round" stroke-miterlimit="10" stroke-width="1"/>
    </g>
    <g id="g132" transform="translate(1042.868 605.595)">
      <path id="path134" d="M0,0H33.209" fill="none" stroke="#ffb73a" stroke-linecap="round" stroke-miterlimit="10" stroke-width="1"/>
    </g>
    <g id="g136" transform="translate(1007.953 595.126)">
      <path id="path138" d="M0,0H-17.029a.833.833,0,0,1-.833-.833.833.833,0,0,1,.833-.833H0a.834.834,0,0,1,.833.833A.834.834,0,0,1,0,0" fill="#6f7cab"/>
    </g>
    <g id="g140" transform="translate(1007.953 598.34)">
      <path id="path142" d="M0,0H-17.029a.833.833,0,0,1-.833-.833.833.833,0,0,1,.833-.833H0a.834.834,0,0,1,.833.833A.834.834,0,0,1,0,0" fill="#6f7cab"/>
    </g>
    <g id="g144" transform="translate(1007.953 601.553)">
      <path id="path146" d="M0,0H-17.029a.833.833,0,0,1-.833-.833.833.833,0,0,1,.833-.833H0a.834.834,0,0,1,.833.833A.834.834,0,0,1,0,0" fill="#6f7cab"/>
    </g>
    <g id="g148" transform="translate(1062.848 591.913)">
      <path id="path150" d="M0,0H-17.029a.834.834,0,0,1-.833-.833.834.834,0,0,1,.833-.833H0a.834.834,0,0,1,.833.833A.834.834,0,0,1,0,0" fill="#6f7cab"/>
    </g>
    <g id="g152" transform="translate(1062.848 595.126)">
      <path id="path154" d="M0,0H-17.029a.834.834,0,0,1-.833-.833.834.834,0,0,1,.833-.833H0a.834.834,0,0,1,.833.833A.834.834,0,0,1,0,0" fill="#6f7cab"/>
    </g>
    <g id="g156" transform="translate(1062.848 598.34)">
      <path id="path158" d="M0,0H-17.029a.834.834,0,0,1-.833-.833.834.834,0,0,1,.833-.833H0a.834.834,0,0,1,.833.833A.834.834,0,0,1,0,0" fill="#6f7cab"/>
    </g>
    <g id="g160" transform="translate(1084.592 591.913)">
      <path id="path162" d="M0,0H-17.029a.833.833,0,0,1-.833-.833.833.833,0,0,1,.833-.833H0a.834.834,0,0,1,.833.833A.834.834,0,0,1,0,0" fill="#6f7cab"/>
    </g>
    <g id="g164" transform="translate(1084.592 595.126)">
      <path id="path166" d="M0,0H-17.029a.833.833,0,0,1-.833-.833.833.833,0,0,1,.833-.833H0a.834.834,0,0,1,.833.833A.834.834,0,0,1,0,0" fill="#6f7cab"/>
    </g>
    <g id="g168" transform="translate(1084.592 598.34)">
      <path id="path170" d="M0,0H-17.029a.833.833,0,0,1-.833-.833.833.833,0,0,1,.833-.833H0a.834.834,0,0,1,.833.833A.834.834,0,0,1,0,0" fill="#6f7cab"/>
    </g>
    <g id="g172" transform="translate(1094.601 591.913)">
      <path id="path174" d="M0,0H-6.032a.834.834,0,0,1-.833-.833.834.834,0,0,1,.833-.833H0a.832.832,0,0,1,.832.833A.832.832,0,0,1,0,0" fill="#6f7cab"/>
    </g>
    <g id="g176" transform="translate(1092.274 595.126)">
      <path id="path178" d="M0,0H-3.705a.834.834,0,0,1-.833-.833.834.834,0,0,1,.833-.833H0a.834.834,0,0,1,.833.833A.834.834,0,0,1,0,0" fill="#6f7cab"/>
    </g>
    <g id="g180" transform="translate(1089.948 598.34)">
      <path id="path182" d="M0,0H-1.379a.834.834,0,0,1-.833-.833.834.834,0,0,1,.833-.833H0a.834.834,0,0,1,.833.833A.834.834,0,0,1,0,0" fill="#6f7cab"/>
    </g>
    <g id="g184" transform="translate(1097.223 604.665)">
      <path id="path186" d="M0,0H-1.379a.832.832,0,0,1-.832-.833.832.832,0,0,1,.832-.833H0a.833.833,0,0,1,.833.833A.833.833,0,0,1,0,0" fill="#3e3e6f"/>
    </g>
    <g id="g188" transform="translate(1097.223 608.191)">
      <path id="path190" d="M0,0H-1.379a.832.832,0,0,1-.832-.833.831.831,0,0,1,.832-.832H0a.832.832,0,0,1,.833.832A.832.832,0,0,1,0,0" fill="#3e3e6f"/>
    </g>
    <g id="g192" transform="translate(1097.223 611.717)">
      <path id="path194" d="M0,0H-1.379a.832.832,0,0,1-.832-.833.832.832,0,0,1,.832-.833H0a.833.833,0,0,1,.833.833A.833.833,0,0,1,0,0" fill="#3e3e6f"/>
    </g>
    <g id="g196" transform="translate(1097.223 615.243)">
      <path id="path198" d="M0,0H-1.379a.832.832,0,0,1-.832-.833.832.832,0,0,1,.832-.833H0a.833.833,0,0,1,.833.833A.833.833,0,0,1,0,0" fill="#3e3e6f"/>
    </g>
    <g id="g200" transform="translate(1097.223 618.768)">
      <path id="path202" d="M0,0H-1.379a.832.832,0,0,1-.832-.833.832.832,0,0,1,.832-.833H0a.833.833,0,0,1,.833.833A.832.832,0,0,1,0,0" fill="#3e3e6f"/>
    </g>
    <g id="g204" transform="translate(1097.223 622.294)">
      <path id="path206" d="M0,0H-1.379a.832.832,0,0,1-.832-.833.832.832,0,0,1,.832-.833H0a.833.833,0,0,1,.833.833A.833.833,0,0,1,0,0" fill="#3e3e6f"/>
    </g>
    <g id="g208" transform="translate(1092.633 608.191)">
      <path id="path210" d="M0,0H-1.379a.833.833,0,0,1-.833-.833.832.832,0,0,1,.833-.832H0a.832.832,0,0,1,.833.832A.833.833,0,0,1,0,0" fill="#3e3e6f"/>
    </g>
    <g id="g212" transform="translate(1092.633 611.717)">
      <path id="path214" d="M0,0H-1.379a.834.834,0,0,1-.833-.833.834.834,0,0,1,.833-.833H0a.834.834,0,0,1,.833.833A.834.834,0,0,1,0,0" fill="#3e3e6f"/>
    </g>
    <g id="g216" transform="translate(1092.633 615.243)">
      <path id="path218" d="M0,0H-1.379a.834.834,0,0,1-.833-.833.834.834,0,0,1,.833-.833H0a.834.834,0,0,1,.833.833A.834.834,0,0,1,0,0" fill="#3e3e6f"/>
    </g>
    <g id="g220" transform="translate(1092.633 618.768)">
      <path id="path222" d="M0,0H-1.379a.833.833,0,0,1-.833-.833.834.834,0,0,1,.833-.833H0a.834.834,0,0,1,.833.833A.833.833,0,0,1,0,0" fill="#3e3e6f"/>
    </g>
    <g id="g224" transform="translate(1092.633 622.294)">
      <path id="path226" d="M0,0H-1.379a.834.834,0,0,1-.833-.833.834.834,0,0,1,.833-.833H0a.834.834,0,0,1,.833.833A.834.834,0,0,1,0,0" fill="#3e3e6f"/>
    </g>
    <g id="g228" transform="translate(1088.043 611.717)">
      <path id="path230" d="M0,0H-1.379a.834.834,0,0,1-.833-.833.834.834,0,0,1,.833-.833H0a.834.834,0,0,1,.833.833A.834.834,0,0,1,0,0" fill="#3e3e6f"/>
    </g>
    <g id="g232" transform="translate(1088.043 615.243)">
      <path id="path234" d="M0,0H-1.379a.834.834,0,0,1-.833-.833.834.834,0,0,1,.833-.833H0a.834.834,0,0,1,.833.833A.834.834,0,0,1,0,0" fill="#3e3e6f"/>
    </g>
    <g id="g236" transform="translate(1088.043 618.768)">
      <path id="path238" d="M0,0H-1.379a.833.833,0,0,1-.833-.833.834.834,0,0,1,.833-.833H0a.834.834,0,0,1,.833.833A.833.833,0,0,1,0,0" fill="#3e3e6f"/>
    </g>
    <g id="g240" transform="translate(1088.043 622.294)">
      <path id="path242" d="M0,0H-1.379a.834.834,0,0,1-.833-.833.834.834,0,0,1,.833-.833H0a.834.834,0,0,1,.833.833A.834.834,0,0,1,0,0" fill="#3e3e6f"/>
    </g>
    <g id="g244" transform="translate(1083.452 611.717)">
      <path id="path246" d="M0,0H-1.379a.834.834,0,0,1-.833-.833.834.834,0,0,1,.833-.833H0a.834.834,0,0,1,.833.833A.834.834,0,0,1,0,0" fill="#3e3e6f"/>
    </g>
    <g id="g248" transform="translate(1083.452 615.243)">
      <path id="path250" d="M0,0H-1.379a.834.834,0,0,1-.833-.833.834.834,0,0,1,.833-.833H0a.834.834,0,0,1,.833.833A.834.834,0,0,1,0,0" fill="#3e3e6f"/>
    </g>
    <g id="g252" transform="translate(1083.452 618.768)">
      <path id="path254" d="M0,0H-1.379a.833.833,0,0,1-.833-.833.834.834,0,0,1,.833-.833H0a.834.834,0,0,1,.833.833A.833.833,0,0,1,0,0" fill="#3e3e6f"/>
    </g>
    <g id="g256" transform="translate(1083.452 622.294)">
      <path id="path258" d="M0,0H-1.379a.834.834,0,0,1-.833-.833.834.834,0,0,1,.833-.833H0a.834.834,0,0,1,.833.833A.834.834,0,0,1,0,0" fill="#3e3e6f"/>
    </g>
    <g id="g260" transform="translate(1078.862 615.243)">
      <path id="path262" d="M0,0H-1.379a.834.834,0,0,1-.833-.833.834.834,0,0,1,.833-.833H0a.834.834,0,0,1,.833.833A.834.834,0,0,1,0,0" fill="#3e3e6f"/>
    </g>
    <g id="g264" transform="translate(1078.862 618.768)">
      <path id="path266" d="M0,0H-1.379a.833.833,0,0,1-.833-.833.834.834,0,0,1,.833-.833H0a.834.834,0,0,1,.833.833A.833.833,0,0,1,0,0" fill="#3e3e6f"/>
    </g>
    <g id="g268" transform="translate(1078.862 622.294)">
      <path id="path270" d="M0,0H-1.379a.834.834,0,0,1-.833-.833.834.834,0,0,1,.833-.833H0a.834.834,0,0,1,.833.833A.834.834,0,0,1,0,0" fill="#3e3e6f"/>
    </g>
    <g id="g272" transform="translate(1074.272 618.768)">
      <path id="path274" d="M0,0H-1.379a.833.833,0,0,1-.833-.833.834.834,0,0,1,.833-.833H0a.834.834,0,0,1,.833.833A.833.833,0,0,1,0,0" fill="#3e3e6f"/>
    </g>
    <g id="g276" transform="translate(1074.272 622.294)">
      <path id="path278" d="M0,0H-1.379a.834.834,0,0,1-.833-.833.834.834,0,0,1,.833-.833H0a.834.834,0,0,1,.833.833A.834.834,0,0,1,0,0" fill="#3e3e6f"/>
    </g>
    <g id="g280" transform="translate(1069.682 622.294)">
      <path id="path282" d="M0,0H-1.379a.834.834,0,0,1-.833-.833.834.834,0,0,1,.833-.833H0a.834.834,0,0,1,.833.833A.834.834,0,0,1,0,0" fill="#3e3e6f"/>
    </g>
    <g id="g284" transform="translate(994.369 609.207)">
      <path id="path286" d="M0,0H-3.445a.833.833,0,0,1-.833-.833.833.833,0,0,1,.833-.833H0a.834.834,0,0,1,.833.833A.834.834,0,0,1,0,0" fill="#3e3e6f"/>
    </g>
    <g id="g288" transform="translate(1001.161 609.207)">
      <path id="path290" d="M0,0H-3.447a.832.832,0,0,1-.832-.833.832.832,0,0,1,.832-.833H0a.834.834,0,0,1,.833.833A.834.834,0,0,1,0,0" fill="#3e3e6f"/>
    </g>
    <g id="g292" transform="translate(1007.953 609.207)">
      <path id="path294" d="M0,0H-3.445a.833.833,0,0,1-.833-.833.833.833,0,0,1,.833-.833H0a.834.834,0,0,1,.833.833A.834.834,0,0,1,0,0" fill="#3e3e6f"/>
    </g>
    <g id="g296" transform="translate(994.369 613.007)">
      <path id="path298" d="M0,0H-3.445a.833.833,0,0,1-.833-.833.833.833,0,0,1,.833-.833H0a.834.834,0,0,1,.833.833A.834.834,0,0,1,0,0" fill="#3e3e6f"/>
    </g>
    <g id="g300" transform="translate(1001.161 613.007)">
      <path id="path302" d="M0,0H-3.447a.832.832,0,0,1-.832-.833.832.832,0,0,1,.832-.833H0a.834.834,0,0,1,.833.833A.834.834,0,0,1,0,0" fill="#3e3e6f"/>
    </g>
    <g id="g304" transform="translate(1007.953 613.007)">
      <path id="path306" d="M0,0H-3.445a.833.833,0,0,1-.833-.833.833.833,0,0,1,.833-.833H0a.834.834,0,0,1,.833.833A.834.834,0,0,1,0,0" fill="#3e3e6f"/>
    </g>
    <g id="g308" transform="translate(994.369 616.805)">
      <path id="path310" d="M0,0H-3.445a.832.832,0,0,1-.833-.833.833.833,0,0,1,.833-.833H0a.834.834,0,0,1,.833.833A.833.833,0,0,1,0,0" fill="#3e3e6f"/>
    </g>
    <g id="g312" transform="translate(1001.161 616.805)">
      <path id="path314" d="M0,0H-3.447a.832.832,0,0,1-.832-.833.832.832,0,0,1,.832-.833H0a.834.834,0,0,1,.833.833A.833.833,0,0,1,0,0" fill="#3e3e6f"/>
    </g>
    <g id="g316" transform="translate(1007.953 616.805)">
      <path id="path318" d="M0,0H-3.445a.832.832,0,0,1-.833-.833.833.833,0,0,1,.833-.833H0a.834.834,0,0,1,.833.833A.833.833,0,0,1,0,0" fill="#3e3e6f"/>
    </g>
    <g id="g320" transform="translate(994.369 620.605)">
      <path id="path322" d="M0,0H-3.445a.833.833,0,0,1-.833-.833.833.833,0,0,1,.833-.833H0a.834.834,0,0,1,.833.833A.834.834,0,0,1,0,0" fill="#3e3e6f"/>
    </g>
    <g id="g324" transform="translate(1001.161 620.605)">
      <path id="path326" d="M0,0H-3.447a.832.832,0,0,1-.832-.833.832.832,0,0,1,.832-.833H0a.834.834,0,0,1,.833.833A.834.834,0,0,1,0,0" fill="#3e3e6f"/>
    </g>
    <g id="g328" transform="translate(1007.953 620.605)">
      <path id="path330" d="M0,0H-3.445a.833.833,0,0,1-.833-.833.833.833,0,0,1,.833-.833H0a.834.834,0,0,1,.833.833A.834.834,0,0,1,0,0" fill="#3e3e6f"/>
    </g>
    <g id="g332" transform="translate(1001.495 584.162)">
      <path id="path334" d="M0,0H-20.084c-1.087-14.7-3.073-25.523-6.349-30.408l15.5,5.325A12.462,12.462,0,0,1-2.9-16.464,115.945,115.945,0,0,1,0,0" fill="#ffb73a"/>
    </g>
    <g id="g336" transform="translate(995.676 582.409)">
      <path id="path338" d="M0,0-5.712-.56l-5.307-.532a2.231,2.231,0,0,1-1.988-1.919l-.252-1.848-.659-4.7-1.049-7.672-.2-1.4a2.225,2.225,0,0,1,2.813-2.451l3.067.883,7.477,2.141a2.3,2.3,0,0,1,1.5,1.4c.028.112.056.211.084.323l.812,4.256L2.029-4.607l.379,1.961A2.234,2.234,0,0,1,0,0" fill="#73d2ff"/>
    </g>
    <g id="g340" transform="translate(912.498 630.891)">
      <path id="path342" d="M0,0V5.663c.3,2.093,1.664,3.4,4.475,3.629H238.81c3.561-.931,3.216-4.52,1.135-9.292H0Z" fill="#222a47"/>
    </g>
    <g id="g344" transform="translate(1103.069 633.057)">
      <path id="path346" d="M0,0V5.259" fill="none" stroke="#3e3e6f" stroke-linecap="round" stroke-miterlimit="10" stroke-width="0.667"/>
    </g>
    <g id="g348" transform="translate(1149.68 601.155)">
      <path id="path350" d="M0,0A37.218,37.218,0,0,0-22.745-7.351H-46.611v-9.643h20.268C-14.721-14.408-3.552-11.344,0,0" fill="#3e3e6f"/>
    </g>
    <g id="g352" transform="translate(1152.439 630.891)">
      <path id="path354" d="M0,0H-49.369V-37.087H-25.5A37.221,37.221,0,0,1-2.759-29.736C-.423-18.769.9-8.556,0,0" fill="#222a47"/>
    </g>
    <g id="g356" transform="translate(1126.374 598.829)">
      <path id="path358" d="M0,0V29.623" fill="none" stroke="#3e3e6f" stroke-linecap="round" stroke-miterlimit="10" stroke-width="0.667"/>
    </g>
    <g id="g360" transform="translate(1126.374 587.027)">
      <path id="path362" d="M0,0V4.887" fill="none" stroke="#222a47" stroke-linecap="round" stroke-miterlimit="10" stroke-width="0.667"/>
    </g>
    <g id="g364" transform="translate(1103.069 570.867)">
      <path id="path366" d="M0,0V13.295H-56.483V0a6.42,6.42,0,0,1,6.413-6.423H-6.413a4.431,4.431,0,0,1,.608.037A6.409,6.409,0,0,1,0,0" fill="#6f7cab"/>
    </g>
    <g id="g368" transform="translate(1120.077 573.862)">
      <path id="path370" d="M0,0A8.357,8.357,0,0,1,4.007,7.135v3.331L3.26,10.3H-17.008V-2.995A6.409,6.409,0,0,0-22.813-9.38l-.009-.037h4.684a9.6,9.6,0,0,1,5,1.4Z" fill="#ffd047"/>
    </g>
    <g id="g372" transform="translate(1056.114 566.411)">
      <path id="path374" d="M0,0V7.975" fill="none" stroke="#222a47" stroke-linecap="round" stroke-miterlimit="10" stroke-width="0.667"/>
    </g>
    <g id="g376" transform="translate(1059.971 566.411)">
      <path id="path378" d="M0,0V7.975" fill="none" stroke="#222a47" stroke-linecap="round" stroke-miterlimit="10" stroke-width="0.667"/>
    </g>
    <g id="g380" transform="translate(1063.827 566.411)">
      <path id="path382" d="M0,0V7.975" fill="none" stroke="#222a47" stroke-linecap="round" stroke-miterlimit="10" stroke-width="0.667"/>
    </g>
    <g id="g384" transform="translate(1067.683 566.411)">
      <path id="path386" d="M0,0V7.975" fill="none" stroke="#222a47" stroke-linecap="round" stroke-miterlimit="10" stroke-width="0.667"/>
    </g>
    <g id="g388" transform="translate(1071.54 566.411)">
      <path id="path390" d="M0,0V7.975" fill="none" stroke="#222a47" stroke-linecap="round" stroke-miterlimit="10" stroke-width="0.667"/>
    </g>
    <g id="g392" transform="translate(1075.396 566.411)">
      <path id="path394" d="M0,0V7.975" fill="none" stroke="#222a47" stroke-linecap="round" stroke-miterlimit="10" stroke-width="0.667"/>
    </g>
    <g id="g396" transform="translate(1079.253 566.411)">
      <path id="path398" d="M0,0V7.975" fill="none" stroke="#222a47" stroke-linecap="round" stroke-miterlimit="10" stroke-width="0.667"/>
    </g>
    <g id="g400" transform="translate(1083.11 566.411)">
      <path id="path402" d="M0,0V7.975" fill="none" stroke="#222a47" stroke-linecap="round" stroke-miterlimit="10" stroke-width="0.667"/>
    </g>
    <g id="g404" transform="translate(1086.966 566.411)">
      <path id="path406" d="M0,0V7.975" fill="none" stroke="#222a47" stroke-linecap="round" stroke-miterlimit="10" stroke-width="0.667"/>
    </g>
    <g id="g408" transform="translate(1090.822 566.411)">
      <path id="path410" d="M0,0V7.975" fill="none" stroke="#222a47" stroke-linecap="round" stroke-miterlimit="10" stroke-width="0.667"/>
    </g>
    <g id="g412" transform="translate(1056.114 577.593)">
      <path id="path414" d="M0,0V2.929" fill="none" stroke="#222a47" stroke-linecap="round" stroke-miterlimit="10" stroke-width="0.667"/>
    </g>
    <g id="g416" transform="translate(1059.971 577.593)">
      <path id="path418" d="M0,0V2.929" fill="none" stroke="#222a47" stroke-linecap="round" stroke-miterlimit="10" stroke-width="0.667"/>
    </g>
    <g id="g420" transform="translate(1063.827 577.593)">
      <path id="path422" d="M0,0V2.929" fill="none" stroke="#222a47" stroke-linecap="round" stroke-miterlimit="10" stroke-width="0.667"/>
    </g>
    <g id="g424" transform="translate(1067.683 577.593)">
      <path id="path426" d="M0,0V2.929" fill="none" stroke="#222a47" stroke-linecap="round" stroke-miterlimit="10" stroke-width="0.667"/>
    </g>
    <g id="g428" transform="translate(1071.54 577.593)">
      <path id="path430" d="M0,0V2.929" fill="none" stroke="#222a47" stroke-linecap="round" stroke-miterlimit="10" stroke-width="0.667"/>
    </g>
    <g id="g432" transform="translate(1075.396 577.593)">
      <path id="path434" d="M0,0V2.929" fill="none" stroke="#222a47" stroke-linecap="round" stroke-miterlimit="10" stroke-width="0.667"/>
    </g>
    <g id="g436" transform="translate(1079.253 577.593)">
      <path id="path438" d="M0,0V2.929" fill="none" stroke="#222a47" stroke-linecap="round" stroke-miterlimit="10" stroke-width="0.667"/>
    </g>
    <g id="g440" transform="translate(1083.11 577.593)">
      <path id="path442" d="M0,0V2.929" fill="none" stroke="#222a47" stroke-linecap="round" stroke-miterlimit="10" stroke-width="0.667"/>
    </g>
    <g id="g444" transform="translate(1086.966 577.593)">
      <path id="path446" d="M0,0V2.929" fill="none" stroke="#222a47" stroke-linecap="round" stroke-miterlimit="10" stroke-width="0.667"/>
    </g>
    <g id="g448" transform="translate(1090.822 577.593)">
      <path id="path450" d="M0,0V2.929" fill="none" stroke="#222a47" stroke-linecap="round" stroke-miterlimit="10" stroke-width="0.667"/>
    </g>
    <g id="g452" transform="translate(972.615 553.239)">
      <path id="path454" d="M0,0C-12.237-2.125-30.84.809-41.955,3.653-46.536-6.385-56.013-12.375-68.232-16.111l-75.132-14.555,3.2-12.1,10.867,1.711h58.828c1.1-.1,2.144-.2,3.137-.293,8.916-.837,13.985-1.141,19.349-.111l5.5,1.463.027.009c2.264.745,4.757,1.729,7.711,2.972a41.529,41.529,0,0,1,17.1,13.4Z" fill="#ffd047"/>
    </g>
    <g id="g456" transform="translate(914.89 511.128)">
      <path id="path458" d="M0,0-12.475,1.057h-59.1L-82.437-.653l8.841-.653h60.531Z" fill="#ffb73a"/>
    </g>
    <g id="g460" transform="translate(924.634 511.781)">
      <path id="path462" d="M0,0C-5.364-1.031-10.433-.727-19.349.111l-42.3-9.835,1.528-6.312Z" fill="#ffb73a"/>
    </g>
    <g id="g464" transform="translate(864.986 493.748)">
      <path id="path466" d="M0,0-.477,2-2.005,8.308l-.507,2.08-5.1-1.179L-5.115-1.361Z" fill="#ffd047"/>
    </g>
    <g id="g468" transform="translate(879.668 500.759)">
      <path id="path470" d="M0,0-.951,3.8" fill="none" stroke="#ffd047" stroke-linecap="round" stroke-miterlimit="10" stroke-width="0.667"/>
    </g>
    <g id="g472" transform="translate(930.766 515.14)">
      <path id="path474" d="M0,0C8.233,1.58,18.459,18.627,28.253,35.164" fill="none" stroke="#ffeb6f" stroke-linecap="round" stroke-miterlimit="10" stroke-width="0.667"/>
    </g>
    <g id="g476" transform="translate(940.296 519.13)">
      <path id="path478" d="M0,0A305.407,305.407,0,0,1,21.767,31.175" fill="none" stroke="#ffeb6f" stroke-linecap="round" stroke-miterlimit="10" stroke-width="0.667"/>
    </g>
    <g id="g480" transform="translate(945.287 522.253)">
      <path id="path482" d="M0,0C6.168,7.393,12.468,17.192,19.124,28.052" fill="none" stroke="#ffeb6f" stroke-linecap="round" stroke-miterlimit="10" stroke-width="0.667"/>
    </g>
    <g id="g484" transform="translate(951.179 526.835)">
      <path id="path486" d="M0,0,16.071,23.469" fill="none" stroke="#ffeb6f" stroke-linecap="round" stroke-miterlimit="10" stroke-width="0.667"/>
    </g>
    <g id="g488" transform="translate(843.967 514.145)">
      <path id="path490" d="M0,0-1.591,9.192" fill="none" stroke="#ffb73a" stroke-linecap="round" stroke-miterlimit="10" stroke-width="1"/>
    </g>
    <g id="g492" transform="translate(927.384 531.117)">
      <path id="path494" d="M0,0,8.785,22.637" fill="none" stroke="#ffeb6f" stroke-linecap="round" stroke-miterlimit="10" stroke-width="0.667"/>
    </g>
    <path id="path496" d="M153.81-499.548h-8.877v-3.308h8.877Z" transform="translate(756 1030.665)" fill="#6f7cab"/>
    <path id="path498" d="M153.81-507.307h-8.877v-3.308h8.877Z" transform="translate(756 1030.665)" fill="#6f7cab"/>
    <g id="g500" transform="translate(832.453 510.474)">
      <path id="path502" d="M0,0C1.132-6.789-.451-12.485-5.667-16.717l7.332,2.043.8.221a5.911,5.911,0,0,1,3.68,3.044v.011A5.766,5.766,0,0,1,6.6-10.157l2.244,9.5Z" fill="#da8f2b"/>
    </g>
    <g id="g504" transform="translate(830.766 533.946)">
      <path id="path506" d="M0,0,6.337,1.9" fill="none" stroke="#ffb73a" stroke-linecap="round" stroke-miterlimit="10" stroke-width="1"/>
    </g>
    <g id="g508" transform="translate(825.822 570.798)">
      <path id="path510" d="M0,0-7.748,34.633" fill="none" stroke="#ffb73a" stroke-linecap="round" stroke-miterlimit="10" stroke-width="1"/>
    </g>
    <g id="g512" transform="translate(826.862 520.907)">
      <path id="path514" d="M0,0A3.3,3.3,0,0,1-3.3,3.3,3.3,3.3,0,0,1-6.6,0,3.3,3.3,0,0,1-3.3-3.3,3.3,3.3,0,0,1,0,0" fill="#ffd047"/>
    </g>
    <g id="g516" transform="translate(838.84 492.623)">
      <path id="path518" d="M0,0-.241,6.443A5.917,5.917,0,0,0-3.921,3.4l-.8-.221L-4.8,3.121l-.781-8.593,2.772,1.128A4.51,4.51,0,0,1,0,0" fill="#da8f2b"/>
    </g>
    <g id="g520" transform="translate(826.788 493.76)">
      <path id="path522" d="M0,0,7.253,1.984q1.888-5.306-.781-8.6C3.528-6.557,1.408-4.252,0,0" fill="#ffb73a"/>
    </g>
    <g id="g524" transform="translate(839.676 491.582)">
      <path id="path526" d="M0,0A3.51,3.51,0,0,1-3.511,3.511,3.511,3.511,0,0,1-7.023,0,3.512,3.512,0,0,1-3.511-3.511,3.511,3.511,0,0,1,0,0" fill="#ffd047"/>
    </g>
    <g id="g528" transform="translate(832.453 497.768)">
      <path id="path530" d="M0,0A16.765,16.765,0,0,1,3.064,9.856" fill="none" stroke="#ffb73a" stroke-linecap="round" stroke-miterlimit="10" stroke-width="1"/>
    </g>
    <g id="g532" transform="translate(835.327 497.768)">
      <path id="path534" d="M0,0A16.765,16.765,0,0,1,3.064,9.856" fill="none" stroke="#ffb73a" stroke-linecap="round" stroke-miterlimit="10" stroke-width="1"/>
    </g>
    <g id="g536" transform="translate(816.044 553.602)">
      <path id="path538" d="M0,0-4.648-.888l.533-2.788,4.647.887Z" fill="#6f7cab"/>
    </g>
    <g id="g540" transform="translate(812.749 575.326)">
      <path id="path542" d="M0,0-4.648-.888l.533-2.788,4.647.888Z" fill="#6f7cab"/>
    </g>
    <g id="g544" transform="translate(811.809 599.15)">
      <path id="path546" d="M0,0-12.568,14.155a1.361,1.361,0,0,1-1.892.14,1.362,1.362,0,0,1-.215-1.864l11.4-15.156A2.131,2.131,0,0,1-.208-3.069,2.131,2.131,0,0,1,0,0" fill="#222a47"/>
    </g>
    <g id="g548" transform="translate(811.264 598.042)">
      <path id="path550" d="M0,0A1.2,1.2,0,0,1-1.2,1.2,1.2,1.2,0,0,1-2.4,0,1.2,1.2,0,0,1-1.2-1.2,1.2,1.2,0,0,1,0,0" fill="#6f7cab"/>
    </g>
    <g id="g552" transform="translate(799.012 612.441)">
      <path id="path554" d="M0,0A.891.891,0,0,1-.892.892.891.891,0,0,1-1.784,0,.891.891,0,0,1-.892-.892.891.891,0,0,1,0,0" fill="#6f7cab"/>
    </g>
    <g id="g556" transform="translate(808.383 612.441)">
      <path id="path558" d="M0,0A2.223,2.223,0,0,1-2.223,2.223,2.223,2.223,0,0,1-4.444,0,2.223,2.223,0,0,1-2.223-2.223,2.223,2.223,0,0,1,0,0" fill="#6f7cab"/>
    </g>
    <g id="g560" transform="translate(797.227 620.804)">
      <path id="path562" d="M0,0H22.163" fill="none" stroke="#6f7cab" stroke-linecap="round" stroke-miterlimit="10" stroke-width="0.667"/>
    </g>
    <g id="g564" transform="translate(862.649 605.792)">
      <path id="path566" d="M0,0-2.356,7.987-14.767,31.061c-2.493,3.477-5.255,6.081-8.713,6.339H-53.115c2.576-.028,4.968-2.189,7.157-6.513L-31.705,0h2.42l-2.751,7.287h2.751L-23.527,0h2.752l-3.349,7.287h3.349L-15.871,0h2.557l-2.953,7.287h2.953L-9.357,0h2.651L-8.961,7.287h2.255L-2.2,0Z" fill="#222a47"/>
    </g>
    <path id="path568" d="M269.121-382.844H204.373v-7.639h64.748Z" transform="translate(756 1030.665)" fill="#222a47"/>
    <g id="g570" transform="translate(1098.829 673.989)">
      <path id="path572" d="M0,0A13,13,0,0,1-13,13,13,13,0,0,1-26,0,13,13,0,0,1-13-13,13,13,0,0,1,0,0" fill="#3e3e6f"/>
    </g>
    <g id="g574" transform="translate(1095.55 673.989)">
      <path id="path576" d="M0,0A9.72,9.72,0,0,1-9.72,9.72,9.72,9.72,0,0,1-19.439,0,9.72,9.72,0,0,1-9.72-9.72,9.72,9.72,0,0,1,0,0" fill="#6f7cab"/>
    </g>
    <g id="g578" transform="translate(967.3 661.124)">
      <path id="path580" d="M0,0A4.265,4.265,0,0,1-4.265,4.265,4.265,4.265,0,0,1-8.531,0,4.265,4.265,0,0,1-4.265-4.265,4.265,4.265,0,0,1,0,0" fill="#6f7cab"/>
    </g>
    <g id="g582" transform="translate(1015.255 661.124)">
      <path id="path584" d="M0,0A4.265,4.265,0,0,1-4.265,4.265,4.266,4.266,0,0,1-8.531,0,4.266,4.266,0,0,1-4.265-4.265,4.265,4.265,0,0,1,0,0" fill="#6f7cab"/>
    </g>
    <path id="path586" d="M162.636-341.482H132.73V-368.2h29.905Z" transform="translate(756 1030.665)" fill="#3e3e6f"/>
    <path id="path588" d="M312.993-344.868H162.918v-19.565H312.993Z" transform="translate(756 1030.665)" fill="#3e3e6f"/>
    <g id="g590" transform="translate(939.033 685.797)">
      <path id="path592" d="M0,0A4.266,4.266,0,0,1-4.265,4.265,4.265,4.265,0,0,1-8.531,0,4.265,4.265,0,0,1-4.265-4.265,4.266,4.266,0,0,1,0,0" fill="#6f7cab"/>
    </g>
    <g id="g594" transform="translate(956.014 685.797)">
      <path id="path596" d="M0,0A4.265,4.265,0,0,1-4.265,4.265,4.266,4.266,0,0,1-8.531,0,4.266,4.266,0,0,1-4.265-4.265,4.265,4.265,0,0,1,0,0" fill="#6f7cab"/>
    </g>
    <g id="g598" transform="translate(972.996 685.797)">
      <path id="path600" d="M0,0A4.265,4.265,0,0,1-4.265,4.265,4.265,4.265,0,0,1-8.531,0,4.265,4.265,0,0,1-4.265-4.265,4.265,4.265,0,0,1,0,0" fill="#6f7cab"/>
    </g>
    <g id="g602" transform="translate(989.978 685.797)">
      <path id="path604" d="M0,0A4.266,4.266,0,0,1-4.265,4.265,4.265,4.265,0,0,1-8.531,0,4.265,4.265,0,0,1-4.265-4.265,4.266,4.266,0,0,1,0,0" fill="#6f7cab"/>
    </g>
    <g id="g606" transform="translate(1006.959 685.797)">
      <path id="path608" d="M0,0A4.265,4.265,0,0,1-4.265,4.265,4.266,4.266,0,0,1-8.531,0,4.266,4.266,0,0,1-4.265-4.265,4.265,4.265,0,0,1,0,0" fill="#6f7cab"/>
    </g>
    <g id="g610" transform="translate(1023.941 685.797)">
      <path id="path612" d="M0,0A4.265,4.265,0,0,1-4.265,4.265,4.265,4.265,0,0,1-8.531,0,4.265,4.265,0,0,1-4.265-4.265,4.265,4.265,0,0,1,0,0" fill="#6f7cab"/>
    </g>
    <g id="g614" transform="translate(1040.922 685.797)">
      <path id="path616" d="M0,0A4.266,4.266,0,0,1-4.265,4.265,4.265,4.265,0,0,1-8.531,0,4.265,4.265,0,0,1-4.265-4.265,4.266,4.266,0,0,1,0,0" fill="#6f7cab"/>
    </g>
    <g id="g618" transform="translate(1057.904 685.797)">
      <path id="path620" d="M0,0A4.265,4.265,0,0,1-4.265,4.265,4.266,4.266,0,0,1-8.531,0,4.266,4.266,0,0,1-4.265-4.265,4.265,4.265,0,0,1,0,0" fill="#6f7cab"/>
    </g>
    <g id="g622" transform="translate(931.644 556.644)">
      <path id="path624" d="M0,0-3.352.892l-10.04-31.4,3.3-1.056Z" fill="#6f7cab"/>
    </g>
    <g id="g626" transform="translate(924.287 524.781)">
      <path id="path628" d="M0,0A5.652,5.652,0,0,1-5.652,5.652,5.652,5.652,0,0,1-11.3,0,5.652,5.652,0,0,1-5.652-5.652,5.652,5.652,0,0,1,0,0" fill="#ffb73a"/>
    </g>
    <g id="g630" transform="translate(950.846 569.052)">
      <path id="path632" d="M0,0V18.705L-35.409,35.493a156.034,156.034,0,0,1,2.423-19.855Z" fill="#89e6ff"/>
    </g>
    <g id="g634" transform="translate(950.846 593.428)">
      <path id="path636" d="M0,0V8.148L-33.14,23.872a3.724,3.724,0,0,1-2.787-3.809q.084-1.574.168-3.108Z" fill="#89e6ff"/>
    </g>
    <g id="g638" transform="translate(970.615 561.548)">
      <path id="path640" d="M0,0-15.737,8.219V1.9l13.624-7.1A4.361,4.361,0,0,1-1.008-3.416C-.644-2.3-.308-1.163,0,0" fill="#89e6ff"/>
    </g>
    <g id="g642" transform="translate(973.709 580.911)">
      <path id="path644" d="M0,0-18.832,9.815V-3.149l17.361-9.06A97.432,97.432,0,0,1,0,0" fill="#89e6ff"/>
    </g>
    <g id="g646" transform="translate(997.706 577.803)">
      <path id="path648" d="M0,0-7.743,4.047l-5.307-.532A2.235,2.235,0,0,1-15.037,1.6l-.252-1.848L-1.443-7.476Z" fill="#89e6ff"/>
    </g>
    <g id="g650" transform="translate(995.369 565.748)">
      <path id="path652" d="M0,0-13.609,7.1-14.659-.575l5.684-2.968L-1.5-1.4A2.3,2.3,0,0,1,0,0" fill="#89e6ff"/>
    </g>
  </g>
</svg>
