<svg xmlns="http://www.w3.org/2000/svg" width="281.704" height="152.031" viewBox="0 0 281.704 152.031">
  <g id="illustration-1" transform="translate(-794.676 -767.969)">
    <g id="g988" transform="translate(859.358 832.667)">
      <path id="path990" d="M0,0A38.241,38.241,0,0,1,38.241,38.241c0,21.12-17.281,39.82-38.4,39.82H-8.5l-13-74.214C-16.571.864-8.889-.028,0,0" fill="#6f7cab"/>
    </g>
    <path id="path992" d="M178.473-150.785H215.9v-28.949H178.473Z" transform="translate(756 1030.665)" fill="#222a47"/>
    <g id="g994" transform="translate(1073.231 851.625)">
      <path id="path996" d="M0,0-23.545,24.4-26.3,28.467l-77.9-.211A48.662,48.662,0,0,1-102.4.9V-4.776l24.039-16.193,18.573-1.7L-.028-1.292Z" fill="#da8f2b"/>
    </g>
    <g id="g998" transform="translate(1047.682 872.54)">
      <path id="path1000" d="M0,0C0-.136-.019-.267-.02-.4L-7.076-2.157l6.7-2.905a37.88,37.88,0,0,0-1.863-7.725l-7.369.644,5.5-5.023a38.282,38.282,0,0,0-4.252-6.66l-6.887,3.057,3.635-6.649a38.311,38.311,0,0,0-6.179-4.867L-23.371-27.1l1.292-7.54a37.892,37.892,0,0,0-7.411-2.577l-3.625,6.772-1.239-7.627a39.115,39.115,0,0,0-3.913-.2,39.115,39.115,0,0,0-3.913.2l-1.237,7.627-3.628-6.772a37.879,37.879,0,0,0-7.409,2.577l1.292,7.54-5.587-5.188a38.38,38.38,0,0,0-6.18,4.867l3.636,6.649-6.887-3.057a38.282,38.282,0,0,0-4.252,6.66l5.5,5.023-7.371-.644a38.055,38.055,0,0,0-1.863,7.725l6.7,2.905L-76.513-.4c0,.137-.02.268-.02.4a38.367,38.367,0,0,0,.752,7.548l7.175.563-5.985,3.873a37.979,37.979,0,0,0,3.32,7.317l6.8-1.756-4.308,5.485a38.338,38.338,0,0,0,5.512,5.9l5.773-3.808-2.273,6.531a38.16,38.16,0,0,0,7.147,3.8l4.188-5.431-.029,6.824a38.067,38.067,0,0,0,8.015,1.3l2.177-6.432,2.177,6.432a38.1,38.1,0,0,0,8.015-1.3l-.031-6.824,4.189,5.431a38.2,38.2,0,0,0,7.147-3.8l-2.275-6.531,5.773,3.808a38.347,38.347,0,0,0,5.513-5.9l-4.308-5.485,6.8,1.756a38.06,38.06,0,0,0,3.32-7.317L-7.927,8.111l7.175-.563A38.469,38.469,0,0,0,0,0" fill="#222a47"/>
    </g>
    <g id="g1002" transform="translate(1035.885 872.486)">
      <path id="path1004" d="M0,0A26.47,26.47,0,0,1-26.469,26.471,26.47,26.47,0,0,1-52.939,0,26.469,26.469,0,0,1-26.469-26.469,26.469,26.469,0,0,1,0,0" fill="#3e3e6f"/>
    </g>
    <g id="g1006" transform="translate(1026.309 872.486)">
      <path id="path1008" d="M0,0A16.892,16.892,0,0,1-16.893,16.893,16.893,16.893,0,0,1-33.787,0,16.894,16.894,0,0,1-16.893-16.893,16.893,16.893,0,0,1,0,0" fill="#222a47"/>
    </g>
    <g id="g1010" transform="translate(1011.099 864.409)">
      <path id="path1012" d="M0,0A1.683,1.683,0,0,1-1.684,1.684,1.683,1.683,0,0,1-3.367,0,1.684,1.684,0,0,1-1.684-1.684,1.684,1.684,0,0,1,0,0" fill="#3e3e6f"/>
    </g>
    <g id="g1014" transform="translate(1016.317 867.965)">
      <path id="path1016" d="M0,0A1.684,1.684,0,0,1-2.381,0a1.683,1.683,0,0,1,0-2.38A1.684,1.684,0,0,1,0-2.38,1.683,1.683,0,0,1,0,0" fill="#3e3e6f"/>
    </g>
    <g id="g1018" transform="translate(1017.492 874.169)">
      <path id="path1020" d="M0,0A1.683,1.683,0,0,1-1.684-1.684,1.683,1.683,0,0,1,0-3.367,1.683,1.683,0,0,1,1.683-1.684,1.683,1.683,0,0,1,0,0" fill="#3e3e6f"/>
    </g>
    <g id="g1022" transform="translate(1013.935 879.387)">
      <path id="path1024" d="M0,0A1.683,1.683,0,0,1,0-2.38a1.684,1.684,0,0,1,2.381,0,1.683,1.683,0,0,1,0,2.38A1.684,1.684,0,0,1,0,0" fill="#3e3e6f"/>
    </g>
    <g id="g1026" transform="translate(1007.732 880.563)">
      <path id="path1028" d="M0,0A1.684,1.684,0,0,1,1.684-1.684,1.684,1.684,0,0,1,3.367,0,1.684,1.684,0,0,1,1.684,1.684,1.684,1.684,0,0,1,0,0" fill="#3e3e6f"/>
    </g>
    <g id="g1030" transform="translate(1002.514 877.007)">
      <path id="path1032" d="M0,0A1.683,1.683,0,1,1,0,2.38,1.684,1.684,0,0,1,0,0" fill="#3e3e6f"/>
    </g>
    <g id="g1034" transform="translate(1001.339 870.802)">
      <path id="path1036" d="M0,0A1.683,1.683,0,0,1,1.684,1.684,1.683,1.683,0,0,1,0,3.367,1.684,1.684,0,0,1-1.684,1.684,1.684,1.684,0,0,1,0,0" fill="#3e3e6f"/>
    </g>
    <g id="g1038" transform="translate(1004.895 865.585)">
      <path id="path1040" d="M0,0A1.683,1.683,0,0,1,0,2.38a1.684,1.684,0,0,1-2.381,0,1.683,1.683,0,0,1,0-2.38A1.684,1.684,0,0,1,0,0" fill="#3e3e6f"/>
    </g>
    <g id="g1042" transform="translate(889.096 872.486)">
      <path id="path1044" d="M0,0A38.242,38.242,0,0,1-38.241,38.243,38.242,38.242,0,0,1-76.482,0,38.241,38.241,0,0,1-38.241-38.241,38.241,38.241,0,0,1,0,0" fill="#3e3e6f"/>
    </g>
    <g id="g1046" transform="translate(881.423 872.486)">
      <path id="path1048" d="M0,0A30.478,30.478,0,0,1-3.027,13.281a30.89,30.89,0,0,1-4.725,7.063,30.543,30.543,0,0,1-17.1,9.689,30.285,30.285,0,0,1-5.719.537,30.02,30.02,0,0,1-4.609-.349A30.568,30.568,0,0,1-61.135,0,30.567,30.567,0,0,1-30.571-30.572a30.021,30.021,0,0,1,5.7.539,30.062,30.062,0,0,1,7.912,2.663A30.55,30.55,0,0,1,0,0" fill="#222a47"/>
    </g>
    <g id="g1050" transform="translate(1049.684 876.027)">
      <path id="path1052" d="M0,0,24.529-11.1A3.684,3.684,0,0,0,26.7-14.463v-6.256a3.687,3.687,0,0,0-3.687-3.687H-6.24S2.369-10.425,0,0" fill="#6f7cab"/>
    </g>
    <g id="g1054" transform="translate(1051.463 866.044)">
      <path id="path1056" d="M0,0,.957,6.863,7.5,4.256V-.959Z" fill="#3e3e6f"/>
    </g>
    <path id="path1058" d="M178.473-150.785h1.968v-27.359h-1.968Z" transform="translate(756 1030.665)" fill="#6f7cab"/>
    <g id="g1060" transform="translate(969.027 879.882)">
      <path id="path1062" d="M0,0H-31.472V-27.356H1.8A48.656,48.656,0,0,0,0,0" fill="#6f7cab"/>
    </g>
    <g id="g1064" transform="translate(971.675 850.931)">
      <path id="path1066" d="M0,0C29.664-35.069,56.189-17.361,71.42-.595h30.109c1.409-25.421-54.913-41.147-66.888-43.711L6.159-47.813-7.528,0Z" fill="#ffd047"/>
    </g>
    <g id="g1068" transform="translate(1006.145 807.822)">
      <path id="path1070" d="M0,0-.757,7.869l-4.8,14.284" fill="none" stroke="#ffb73a" stroke-linecap="round" stroke-miterlimit="10" stroke-width="0.872"/>
    </g>
    <g id="g1072" transform="translate(988.097 819.455)">
      <path id="path1074" d="M0,0-3.336,12.488-14.8,11.463" fill="none" stroke="#ffb73a" stroke-linecap="round" stroke-miterlimit="10" stroke-width="0.872"/>
    </g>
    <g id="g1076" transform="translate(975.951 815.263)">
      <path id="path1078" d="M0,0,26.944,3.251" fill="none" stroke="#ffb73a" stroke-linecap="round" stroke-miterlimit="10" stroke-width="0.872"/>
    </g>
    <g id="g1080" transform="translate(981.539 803.574)">
      <path id="path1082" d="M0,0-1.4,6.608a3.459,3.459,0,0,0,2.9,4.143l14.983,2.108A3.461,3.461,0,0,0,20.364,10.1l1.461-7.415Z" fill="#6f7cab"/>
    </g>
    <g id="g1084" transform="translate(977.457 836.647)">
      <path id="path1086" d="M0,0A2.5,2.5,0,0,1-2.5,2.5,2.5,2.5,0,0,1-5,0,2.5,2.5,0,0,1-2.5-2.5,2.5,2.5,0,0,1,0,0" fill="#ffb73a"/>
    </g>
    <g id="g1088" transform="translate(1024.445 823.259)">
      <path id="path1090" d="M0,0V5.672c8.495,5.837,15.872,12.141,19.589,19.985H40.564C41.671,12.515,19,7.651,0,0" fill="#3e3e6f"/>
    </g>
    <g id="g1092" transform="translate(1006.494 818.899)">
      <path id="path1094" d="M0,0,14.665,4.361" fill="none" stroke="#ffb73a" stroke-linecap="round" stroke-miterlimit="10" stroke-width="0.872"/>
    </g>
    <g id="g1096" transform="translate(953.109 855.246)">
      <path id="path1098" d="M0,0A.922.922,0,0,1-.923.923.922.922,0,0,1-1.847,0,.922.922,0,0,1-.923-.923.922.922,0,0,1,0,0" fill="#3e3e6f"/>
    </g>
    <g id="g1100" transform="translate(953.109 859.103)">
      <path id="path1102" d="M0,0A.922.922,0,0,1-.923.923.922.922,0,0,1-1.847,0,.922.922,0,0,1-.923-.923.922.922,0,0,1,0,0" fill="#3e3e6f"/>
    </g>
    <g id="g1104" transform="translate(959.304 855.246)">
      <path id="path1106" d="M0,0A.922.922,0,0,1-.924.923.922.922,0,0,1-1.847,0,.922.922,0,0,1-.924-.923.922.922,0,0,1,0,0" fill="#3e3e6f"/>
    </g>
    <g id="g1108" transform="translate(959.304 859.103)">
      <path id="path1110" d="M0,0A.922.922,0,0,1-.924.923.922.922,0,0,1-1.847,0,.922.922,0,0,1-.924-.923.922.922,0,0,1,0,0" fill="#3e3e6f"/>
    </g>
    <g id="g1112" transform="translate(968.308 769.491)">
      <path id="path1114" d="M0,0,9.525,33.627-4.161,81.44h-46.22L-62.375,74.2C-66.942,44.783-64.925,9.535-46.739,2.8-31.955-1.824-16.364-2.707,0,0" fill="#3e3e6f"/>
    </g>
    <g id="g1116" transform="translate(905.53 777.983)">
      <path id="path1118" d="M0,0,.791-2.92,13.932-4.747,11.339-3.071,1.688-1.981,1.347-.415Z" fill="#222a47"/>
    </g>
    <g id="g1120" transform="translate(907.65 777.616)">
      <path id="path1122" d="M0,0-3.412,15.58l-2.02,1.12C-9.337,9.428-4.592-.824,0,0" fill="#222a47"/>
    </g>
    <g id="g1124" transform="translate(962.173 770.279)">
      <path id="path1126" d="M0,0,5.379.4" fill="none" stroke="#222a47" stroke-linecap="round" stroke-miterlimit="10" stroke-width="0.581"/>
    </g>
    <g id="g1128" transform="translate(968.786 802.295)">
      <path id="path1130" d="M0,0,7.885.823" fill="none" stroke="#222a47" stroke-linecap="round" stroke-miterlimit="10" stroke-width="0.581"/>
    </g>
    <g id="g1132" transform="translate(952.186 843.211)">
      <path id="path1134" d="M0,0H12.167" fill="none" stroke="#222a47" stroke-linecap="round" stroke-miterlimit="10" stroke-width="0.581"/>
    </g>
    <g id="g1136" transform="translate(917.04 844.702)">
      <path id="path1138" d="M0,0,.836,4.977" fill="none" stroke="#222a47" stroke-linecap="round" stroke-miterlimit="10" stroke-width="0.581"/>
    </g>
    <g id="g1140" transform="translate(966.695 803.521)">
      <path id="path1142" d="M0,0-.477,1.172-9.607,23.7l-5.887,14.539a1.9,1.9,0,0,1-1.767,1.192h-3.957a1.909,1.909,0,0,1-1.908-1.907v-68a2.741,2.741,0,0,1,2.4-2.732,52.241,52.241,0,0,1,12.868.1,2.776,2.776,0,0,1,2.387,2.191l.856,4.237,2.092,10.42.911,4.511L-.293-5.183.239-2.527A4.383,4.383,0,0,1,0,0" fill="#73d2ff"/>
    </g>
    <g id="g1144" transform="translate(964.169 787.259)">
      <path id="path1146" d="M0,0-20.6,10.808V-.716l18.507-9.7Z" fill="#89e6ff"/>
    </g>
    <g id="g1148" transform="translate(966.402 798.339)">
      <path id="path1150" d="M0,0-22.832,11.98V4.705L-1.323-6.569Z" fill="#89e6ff"/>
    </g>
    <g id="g1152" transform="translate(966.218 804.693)">
      <path id="path1154" d="M0,0-9.129,22.528l-13.519,7.091V11.881Z" fill="#89e6ff"/>
    </g>
    <g id="g1156" transform="translate(966.662 807.103)">
      <path id="path1158" d="M0,0-2.22-1.152a1.911,1.911,0,0,1-.815-2.576A1.91,1.91,0,0,1-.459-4.543L1.759-3.392A1.91,1.91,0,0,1,2.575-.816,1.909,1.909,0,0,1,0,0" fill="#222a47"/>
    </g>
    <g id="g1160" transform="translate(966.022 804.228)">
      <path id="path1162" d="M0,0A.824.824,0,0,1-.825.824.824.824,0,0,1-1.649,0,.824.824,0,0,1-.825-.824.824.824,0,0,1,0,0" fill="#6f7cab"/>
    </g>
    <g id="g1164" transform="translate(940.849 771.507)">
      <path id="path1166" d="M0,0V69.928H-24.177l-9.5-5.908c-.076-.629-.153-1.259-.217-1.887-.173-1.715-.325-3.4-.435-5.075-.173-2.407-.271-4.781-.292-7.1q-.048-4.912.292-9.575a93.061,93.061,0,0,1,2.472-15.655A80.237,80.237,0,0,1-25.879,8.283C-21.608,2.145-10.2,1.551,0,0" fill="#73d2ff"/>
    </g>
    <g id="g1168" transform="translate(940.849 781.123)">
      <path id="path1170" d="M0,0V14.5L-34.325,30.768a93.083,93.083,0,0,1,2.472-15.655Z" fill="#89e6ff"/>
    </g>
    <g id="g1172" transform="translate(940.849 805.039)">
      <path id="path1174" d="M0,0V7.252L-34.325,23.527c-.173-2.407-.271-4.781-.292-7.1Z" fill="#89e6ff"/>
    </g>
    <g id="g1176" transform="translate(940.849 817.561)">
      <path id="path1178" d="M0,0V12.652L-23.656,23.873h-.521l-9.5-5.908c-.076-.629-.153-1.259-.217-1.887Z" fill="#89e6ff"/>
    </g>
    <g id="g1180" transform="translate(942.375 778.211)">
      <path id="path1182" d="M0,0-7.045-.727V-3.553L0-4.28Z" fill="#222a47"/>
    </g>
    <g id="g1184" transform="translate(937.55 776.072)">
      <path id="path1186" d="M0,0A.444.444,0,0,1-.444.444.444.444,0,0,1-.888,0,.443.443,0,0,1-.444-.444.443.443,0,0,1,0,0" fill="#6f7cab"/>
    </g>
    <g id="g1188" transform="translate(942.375 804.434)">
      <path id="path1190" d="M0,0-7.045-.727V-3.553L0-4.28Z" fill="#222a47"/>
    </g>
    <g id="g1192" transform="translate(937.55 802.295)">
      <path id="path1194" d="M0,0A.443.443,0,0,1-.444.443.443.443,0,0,1-.888,0,.443.443,0,0,1-.444-.444.443.443,0,0,1,0,0" fill="#6f7cab"/>
    </g>
    <g id="g1196" transform="translate(942.375 830.656)">
      <path id="path1198" d="M0,0-7.045-.727V-3.553L0-4.28Z" fill="#222a47"/>
    </g>
    <g id="g1200" transform="translate(937.55 828.516)">
      <path id="path1202" d="M0,0A.443.443,0,0,1-.444.444.443.443,0,0,1-.888,0,.444.444,0,0,1-.444-.444.444.444,0,0,1,0,0" fill="#6f7cab"/>
    </g>
    <g id="g1204" transform="translate(913.765 818.979)">
      <path id="path1206" d="M0,0A3.086,3.086,0,0,1-3.084,3.084,3.069,3.069,0,0,1-5.821,1.416H-8.188V-1.416h2.36A3.077,3.077,0,0,1-3.084-3.092,3.088,3.088,0,0,1,0,0" fill="#222a47"/>
    </g>
    <g id="g1208" transform="translate(911.81 818.975)">
      <path id="path1210" d="M0,0A1.3,1.3,0,0,1-1.3,1.3,1.3,1.3,0,0,1-2.605,0,1.3,1.3,0,0,1-1.3-1.3,1.3,1.3,0,0,1,0,0" fill="#3e3e6f"/>
    </g>
    <g id="g1212" transform="translate(969.402 773.477)">
      <path id="path1214" d="M0,0H9.341A3.2,3.2,0,0,1,12.3,1.987l1.977,4.823H1.959Z" fill="#222a47"/>
    </g>
    <g id="g1216" transform="translate(983.684 780.287)">
      <path id="path1218" d="M0,0-4.635,4.492h-6.411L-12.323,0Z" fill="#ffd047"/>
    </g>
    <path id="path1220" d="M172.538-162.016h-12.1v-5.623h12.1Z" transform="translate(756 1030.665)" fill="#3e3e6f"/>
    <path id="path1222" d="M172.538-148.844h-12.1v-5.623h12.1Z" transform="translate(756 1030.665)" fill="#3e3e6f"/>
    <g id="g1224" transform="translate(920.96 870.454)">
      <path id="path1226" d="M0,0V3.423H13.513v-15.7H0v2.743H9.045V0Z" fill="#3e3e6f"/>
    </g>
    <g id="g1228" transform="translate(904.86 850.931)">
      <path id="path1230" d="M0,0H29.613V6h-22Z" fill="#222a47"/>
    </g>
    <g id="g1232" transform="translate(917.876 881.25)">
      <path id="path1234" d="M0,0V-18.553a5.682,5.682,0,0,0-2.111-4.419l-10.805-8.723a6.67,6.67,0,0,0-4.629-1.469L-115.169-26.8a6.639,6.639,0,0,0-6.167,5.9l-1.832,16.768a5.441,5.441,0,0,0,4.493,5.953l23.711,4.04,90.1-.948A4.912,4.912,0,0,0,0,0" fill="#ffd047"/>
    </g>
    <g id="g1236" transform="translate(814.747 859.728)">
      <path id="path1238" d="M0,0A2.681,2.681,0,0,1-2.68,2.681,2.681,2.681,0,0,1-5.36,0,2.681,2.681,0,0,1-2.68-2.68,2.681,2.681,0,0,1,0,0" fill="#6f7cab"/>
    </g>
    <g id="g1240" transform="translate(814.234 879.629)">
      <path id="path1242" d="M0,0A2.68,2.68,0,0,1-2.68,2.68,2.68,2.68,0,0,1-5.36,0,2.68,2.68,0,0,1-2.68-2.68,2.68,2.68,0,0,1,0,0" fill="#6f7cab"/>
    </g>
    <g id="g1244" transform="translate(804.597 858.873)">
      <path id="path1246" d="M0,0A1.253,1.253,0,0,1-1.255,1.255,1.254,1.254,0,0,1-2.509,0,1.254,1.254,0,0,1-1.255-1.253,1.253,1.253,0,0,1,0,0" fill="#ffeb6f"/>
    </g>
    <g id="g1248" transform="translate(803.697 865.159)">
      <path id="path1250" d="M0,0A1.253,1.253,0,0,1-1.255,1.253,1.254,1.254,0,0,1-2.509,0,1.255,1.255,0,0,1-1.255-1.255,1.254,1.254,0,0,1,0,0" fill="#ffeb6f"/>
    </g>
    <g id="g1252" transform="translate(802.796 871.444)">
      <path id="path1254" d="M0,0A1.253,1.253,0,0,1-1.255,1.253,1.253,1.253,0,0,1-2.509,0,1.254,1.254,0,0,1-1.255-1.255,1.254,1.254,0,0,1,0,0" fill="#ffeb6f"/>
    </g>
    <g id="g1256" transform="translate(801.896 877.729)">
      <path id="path1258" d="M0,0A1.253,1.253,0,0,1-1.255,1.253,1.253,1.253,0,0,1-2.509,0,1.253,1.253,0,0,1-1.255-1.253,1.253,1.253,0,0,1,0,0" fill="#ffeb6f"/>
    </g>
    <g id="g1260" transform="translate(831.032 861.941)">
      <path id="path1262" d="M0,0A1.254,1.254,0,0,1-1.1,1.388,1.254,1.254,0,0,1-2.493.285,1.254,1.254,0,0,1-1.389-1.1,1.254,1.254,0,0,1,0,0" fill="#ffeb6f"/>
    </g>
    <g id="g1264" transform="translate(830.853 868.288)">
      <path id="path1266" d="M0,0A1.255,1.255,0,0,1-1.1,1.389,1.255,1.255,0,0,1-2.493.285,1.253,1.253,0,0,1-1.389-1.1,1.253,1.253,0,0,1,0,0" fill="#ffeb6f"/>
    </g>
    <g id="g1268" transform="translate(830.674 874.634)">
      <path id="path1270" d="M0,0A1.255,1.255,0,0,1-1.1,1.389,1.254,1.254,0,0,1-2.493.287,1.255,1.255,0,0,1-1.389-1.1,1.254,1.254,0,0,1,0,0" fill="#ffeb6f"/>
    </g>
    <g id="g1272" transform="translate(830.495 880.982)">
      <path id="path1274" d="M0,0A1.255,1.255,0,0,1-1.1,1.389,1.255,1.255,0,0,1-2.493.285,1.255,1.255,0,0,1-1.389-1.1,1.254,1.254,0,0,1,0,0" fill="#ffeb6f"/>
    </g>
    <g id="g1276" transform="translate(875.921 861.871)">
      <path id="path1278" d="M0,0A1.256,1.256,0,0,1-1.1,1.389,1.255,1.255,0,0,1-2.493.285,1.255,1.255,0,0,1-1.389-1.1,1.255,1.255,0,0,1,0,0" fill="#ffeb6f"/>
    </g>
    <g id="g1280" transform="translate(875.742 868.218)">
      <path id="path1282" d="M0,0A1.255,1.255,0,0,1-1.1,1.389,1.255,1.255,0,0,1-2.493.287,1.254,1.254,0,0,1-1.389-1.1,1.253,1.253,0,0,1,0,0" fill="#ffeb6f"/>
    </g>
    <g id="g1284" transform="translate(875.563 874.565)">
      <path id="path1286" d="M0,0A1.254,1.254,0,0,1-1.1,1.389,1.254,1.254,0,0,1-2.492.285,1.253,1.253,0,0,1-1.389-1.1,1.254,1.254,0,0,1,0,0" fill="#ffeb6f"/>
    </g>
    <g id="g1288" transform="translate(875.384 880.912)">
      <path id="path1290" d="M0,0A1.253,1.253,0,0,1-1.1,1.389,1.254,1.254,0,0,1-2.492.287,1.252,1.252,0,0,1-1.389-1.1,1.253,1.253,0,0,1,0,0" fill="#ffeb6f"/>
    </g>
    <g id="g1292" transform="translate(901.642 862.034)">
      <path id="path1294" d="M0,0A1.252,1.252,0,0,1-1.1,1.388,1.252,1.252,0,0,1-2.492.285,1.254,1.254,0,0,1-1.389-1.1,1.253,1.253,0,0,1,0,0" fill="#ffeb6f"/>
    </g>
    <g id="g1296" transform="translate(901.464 868.38)">
      <path id="path1298" d="M0,0A1.255,1.255,0,0,1-1.1,1.389,1.255,1.255,0,0,1-2.493.285,1.253,1.253,0,0,1-1.389-1.1,1.253,1.253,0,0,1,0,0" fill="#ffeb6f"/>
    </g>
    <g id="g1300" transform="translate(901.285 874.728)">
      <path id="path1302" d="M0,0A1.254,1.254,0,0,1-1.1,1.388,1.254,1.254,0,0,1-2.493.285,1.255,1.255,0,0,1-1.389-1.1,1.254,1.254,0,0,1,0,0" fill="#ffeb6f"/>
    </g>
    <g id="g1304" transform="translate(901.106 881.074)">
      <path id="path1306" d="M0,0A1.255,1.255,0,0,1-1.1,1.389,1.255,1.255,0,0,1-2.493.285,1.253,1.253,0,0,1-1.389-1.1,1.253,1.253,0,0,1,0,0" fill="#ffeb6f"/>
    </g>
    <g id="g1308" transform="translate(916 862.539)">
      <path id="path1310" d="M0,0A1.255,1.255,0,0,1-1.1,1.389,1.255,1.255,0,0,1-2.493.285,1.253,1.253,0,0,1-1.389-1.1,1.252,1.252,0,0,1,0,0" fill="#ffeb6f"/>
    </g>
    <g id="g1312" transform="translate(915.821 868.887)">
      <path id="path1314" d="M0,0A1.252,1.252,0,0,1-1.1,1.388,1.254,1.254,0,0,1-2.493.285,1.255,1.255,0,0,1-1.389-1.1,1.254,1.254,0,0,1,0,0" fill="#ffeb6f"/>
    </g>
    <g id="g1316" transform="translate(915.642 875.233)">
      <path id="path1318" d="M0,0A1.254,1.254,0,0,1-1.1,1.389,1.254,1.254,0,0,1-2.492.285,1.252,1.252,0,0,1-1.389-1.1,1.252,1.252,0,0,1,0,0" fill="#ffeb6f"/>
    </g>
    <g id="g1320" transform="translate(915.464 881.581)">
      <path id="path1322" d="M0,0A1.254,1.254,0,0,1-1.1,1.388,1.254,1.254,0,0,1-2.493.285,1.255,1.255,0,0,1-1.389-1.1,1.254,1.254,0,0,1,0,0" fill="#ffeb6f"/>
    </g>
    <g id="g1324" transform="translate(861.498 871.07)">
      <path id="path1326" d="M0,0A9.458,9.458,0,0,1-9.459,9.459,9.459,9.459,0,0,1-18.917,0,9.459,9.459,0,0,1-9.459-9.459,9.458,9.458,0,0,1,0,0" fill="#222a47"/>
    </g>
    <g id="g1328" transform="translate(893.784 858.134)">
      <path id="path1330" d="M0,0-11.645.659a2.777,2.777,0,0,1-2.931-2.617l-.044-.789A2.778,2.778,0,0,1-12-5.679L-.359-6.337A2.778,2.778,0,0,1,2.572-3.72l.045.789A2.779,2.779,0,0,1,0,0" fill="#ffb73a"/>
    </g>
    <rect id="Rectangle_1" data-name="Rectangle 1" width="259" height="9" rx="4.5" transform="translate(806 911)" fill="#e0d8ff"/>
  </g>
</svg>
