<svg xmlns="http://www.w3.org/2000/svg" width="46.786" height="51.528" viewBox="0 0 46.786 51.528">
  <g id="g10" transform="translate(-406.666 747.45)">
    <g id="g12" transform="translate(406.666 -747.45)">
      <path id="path28" d="M454.549-630.857c-.059-.7-.125-1.407-.2-2.108-.038-.328-.076-.656-.118-.984-.018-.127-.036-.254-.055-.381-.178-1.193-.387-2.382-.663-3.555-.079-.338-.165-.675-.256-1.011-.012.037-.025.073-.037.11a52.662,52.662,0,0,0-1.326,5.1c-.836,3.909-1.336,7.876-2.121,11.794a33.99,33.99,0,0,1-1.556,5.911c-.678,1.7-1.52,3.373-3.4,3.979-3.587,1.156-5.275-3.172-6.09-5.751-.956-3.025-1.608-6.143-2.364-9.222q-.216-.88-.442-1.758c-.843,4.069-1.279,8.265-2.857,12.113l-.037.089,13.84,8.019a9.684,9.684,0,0,0,5.28,1.074c.058-.114.117-.227.171-.343s.095-.2.141-.306c.2-.51.391-1.026.555-1.551a33.34,33.34,0,0,0,.942-3.814c.13-.693.247-1.389.345-2.087l0-.008c.019-.152.038-.3.056-.455.043-.367.084-.734.12-1.1q.222-2.259.3-4.53a80.344,80.344,0,0,0-.224-9.222" transform="translate(-428.157 658.945)" fill="#18b441"/>
      <path id="path30" d="M567.034-648.329a57.651,57.651,0,0,1-1.246,10.922l10.884-6.334a10.168,10.168,0,0,0,4.543-7.967v-.865l-17.845-19.3a14.644,14.644,0,0,1,2.169,5.507,69.418,69.418,0,0,1,1.5,18.037" transform="translate(-534.43 685.831)" fill="#18b441"/>
      <path id="path32" d="M448.908-738.009l-14.376-8.344a10.129,10.129,0,0,0-9.17,0l-14.252,8.344a10.065,10.065,0,0,0-4.443,7.966v16.716a8.051,8.051,0,0,0,.409,2.83c.6-2.49.945-5.019,1.46-7.529a30.323,30.323,0,0,1,1.5-5.66c.643-1.536,1.529-3.436,3.369-3.8a4.2,4.2,0,0,1,4.553,2.255l5.773,6.138a74.654,74.654,0,0,1,1.946-8.94c.632-2.119,1.429-5.023,3.254-6.478,2.373-1.892,4.9-1.317,6.672,1.015l17.845,19.3v-15.851a10.167,10.167,0,0,0-4.543-7.966" transform="translate(-406.666 747.45)" fill="#2de25d"/>
      <path id="path34" d="M470.477-618.971c.526,2.145,1,4.311,1.566,6.45.37-1.675.668-3.368.948-5.057.188-1.135.373-2.273.565-3.409l-5.778-6.138c1.437,2.427,2.036,5.446,2.7,8.154" transform="translate(-456.491 649.347)" fill="#18b441"/>
    </g>
  </g>
</svg>
