<svg xmlns="http://www.w3.org/2000/svg" width="231.864" height="210.235" viewBox="0 0 231.864 210.235">
  <g id="m-logo" transform="translate(-131.576 -39.909)">
    <path id="Path_1" data-name="Path 1" d="M249.453,66.95l102-1.315v132h-66.68v-78.33l22.238-22.362h7.334v32l-.041,47.694" transform="translate(-6.453 -18.635)" fill="none" stroke="#1db689" stroke-width="14"/>
    <path id="Path_2" data-name="Path 2" d="M249.453,66.94h-4.5l106.5-1.3v131h-66.68V118.9l22.238-22.192h7.334v78.507" transform="translate(-108.453 -17.635)" fill="none" stroke="#1db689" stroke-width="14"/>
    <line id="Line_1" data-name="Line 1" y2="140.5" transform="translate(143.5 44)" fill="none" stroke="#1db689" stroke-width="14"/>
    <path id="Path_3" data-name="Path 3" d="M27.28,0,27.2-12.76,21.12-2.52H16.96l-6.08-9.8V0H2.28V-28h7.76l9.12,14.92L28.04-28H35.8l.08,28ZM55.12.64A17.276,17.276,0,0,1,47-1.24a14.121,14.121,0,0,1-5.64-5.22A14.175,14.175,0,0,1,39.32-14a14.175,14.175,0,0,1,2.04-7.54A14.121,14.121,0,0,1,47-26.76a17.276,17.276,0,0,1,8.12-1.88,17.276,17.276,0,0,1,8.12,1.88,14.121,14.121,0,0,1,5.64,5.22A14.175,14.175,0,0,1,70.92-14a14.175,14.175,0,0,1-2.04,7.54,14.121,14.121,0,0,1-5.64,5.22A17.276,17.276,0,0,1,55.12.64Zm0-7.64a6.018,6.018,0,0,0,3.18-.86,6.158,6.158,0,0,0,2.26-2.44A7.77,7.77,0,0,0,61.4-14a7.77,7.77,0,0,0-.84-3.7,6.158,6.158,0,0,0-2.26-2.44A6.018,6.018,0,0,0,55.12-21a6.018,6.018,0,0,0-3.18.86,6.158,6.158,0,0,0-2.26,2.44,7.77,7.77,0,0,0-.84,3.7,7.77,7.77,0,0,0,.84,3.7,6.158,6.158,0,0,0,2.26,2.44A6.018,6.018,0,0,0,55.12-7Zm46.84-21V0H92.52V-10.32H83.8V0H74.36V-28H83.8v9.92h8.72V-28ZM125.6-4.88H114.96L113.08,0h-9.6l12.24-28H125L137.24,0h-9.76Zm-2.6-6.8-2.72-7.04-2.72,7.04ZM163.76,0l-.08-12.76L157.6-2.52h-4.16l-6.08-9.8V0h-8.6V-28h7.76l9.12,14.92L164.52-28h7.76l.08,28ZM200.2-7.12V0H176.92V-28h22.76v7.12H186.2v3.28h11.84v6.8H186.2v3.68ZM203.84-28h13.8a19.047,19.047,0,0,1,8.26,1.7,12.935,12.935,0,0,1,5.56,4.86A13.72,13.72,0,0,1,233.44-14a13.72,13.72,0,0,1-1.98,7.44A12.935,12.935,0,0,1,225.9-1.7,19.047,19.047,0,0,1,217.64,0h-13.8Zm13.4,20.64A6.74,6.74,0,0,0,222.1-9.1a6.458,6.458,0,0,0,1.82-4.9,6.458,6.458,0,0,0-1.82-4.9,6.74,6.74,0,0,0-4.86-1.74h-3.96V-7.36Z" transform="translate(130 228)" fill="#1f1f1f"/>
    <path id="Path_4" data-name="Path 4" d="M19.692-12.6,15.48,0H13.59L10.152-10.062,6.714,0H4.788L.576-12.6H2.43l3.4,10.242L9.378-12.6h1.656L14.508-2.3l3.474-10.3ZM36.072-1.566V0H26.928V-12.6H35.82v1.566H28.728v3.87h6.318v1.53H28.728v4.068ZM52.506-6.534a3.227,3.227,0,0,1,1.728,1.107,3.176,3.176,0,0,1,.63,2.025,2.912,2.912,0,0,1-1.233,2.52A6.136,6.136,0,0,1,50.04,0H44.028V-12.6H49.68a5.572,5.572,0,0,1,3.339.864A2.8,2.8,0,0,1,54.2-9.342a3.113,3.113,0,0,1-.459,1.71A2.99,2.99,0,0,1,52.506-6.534Zm-6.678-4.608V-7.11h3.69a3.747,3.747,0,0,0,2.133-.513,1.707,1.707,0,0,0,.747-1.5,1.707,1.707,0,0,0-.747-1.5,3.747,3.747,0,0,0-2.133-.513Zm4.14,9.684a4.262,4.262,0,0,0,2.3-.5,1.754,1.754,0,0,0,.774-1.584q0-2.106-3.078-2.106h-4.14v4.194ZM72.576-12.6h5.31a7.677,7.677,0,0,1,3.546.792,5.819,5.819,0,0,1,2.4,2.223A6.28,6.28,0,0,1,84.69-6.3a6.28,6.28,0,0,1-.855,3.285,5.819,5.819,0,0,1-2.4,2.223A7.677,7.677,0,0,1,77.886,0h-5.31Zm5.2,11.034a5.829,5.829,0,0,0,2.691-.594A4.294,4.294,0,0,0,82.26-3.825,4.79,4.79,0,0,0,82.89-6.3a4.79,4.79,0,0,0-.63-2.475,4.294,4.294,0,0,0-1.791-1.665,5.829,5.829,0,0,0-2.691-.594h-3.4v9.468Zm23.85,0V0H92.484V-12.6h8.892v1.566H94.284v3.87H100.6v1.53H94.284v4.068ZM120.348-12.6,114.822,0H113.04L107.5-12.6h1.944l4.536,10.35,4.572-10.35ZM136.134-1.566V0H126.99V-12.6h8.892v1.566H128.79v3.87h6.318v1.53H128.79v4.068ZM144.09-12.6h1.8V-1.566h6.822V0H144.09ZM165.276.144a7.044,7.044,0,0,1-3.438-.837,6.187,6.187,0,0,1-2.4-2.313,6.348,6.348,0,0,1-.873-3.294,6.348,6.348,0,0,1,.873-3.294,6.187,6.187,0,0,1,2.4-2.313,7.044,7.044,0,0,1,3.438-.837,7.007,7.007,0,0,1,3.42.837,6.142,6.142,0,0,1,2.394,2.3,6.385,6.385,0,0,1,.864,3.3A6.385,6.385,0,0,1,171.09-3a6.142,6.142,0,0,1-2.394,2.3A7.007,7.007,0,0,1,165.276.144Zm0-1.6a4.95,4.95,0,0,0,2.493-.63,4.622,4.622,0,0,0,1.746-1.737,4.861,4.861,0,0,0,.639-2.475,4.861,4.861,0,0,0-.639-2.475,4.622,4.622,0,0,0-1.746-1.737,4.95,4.95,0,0,0-2.493-.63,5.05,5.05,0,0,0-2.511.63A4.586,4.586,0,0,0,161-8.775a4.861,4.861,0,0,0-.639,2.475A4.861,4.861,0,0,0,161-3.825a4.586,4.586,0,0,0,1.764,1.737A5.05,5.05,0,0,0,165.276-1.458ZM184.662-12.6a5.837,5.837,0,0,1,3.852,1.17,3.968,3.968,0,0,1,1.4,3.222,3.968,3.968,0,0,1-1.4,3.222,5.837,5.837,0,0,1-3.852,1.17h-3.114V0h-1.8V-12.6Zm-.054,7.218a4.062,4.062,0,0,0,2.61-.729,2.542,2.542,0,0,0,.9-2.1,2.542,2.542,0,0,0-.9-2.1,4.062,4.062,0,0,0-2.61-.729h-3.06v5.652Zm22.14,3.816V0H197.6V-12.6H206.5v1.566H199.4v3.87h6.318v1.53H199.4v4.068ZM223.128,0,220.41-3.87q-.5.036-.792.036H216.5V0h-1.8V-12.6h4.914a5.837,5.837,0,0,1,3.852,1.17,3.968,3.968,0,0,1,1.4,3.222,4.214,4.214,0,0,1-.72,2.484A4.068,4.068,0,0,1,222.1-4.23L225.09,0Zm-3.564-5.364a4.027,4.027,0,0,0,2.61-.738,2.568,2.568,0,0,0,.9-2.106,2.542,2.542,0,0,0-.9-2.1,4.062,4.062,0,0,0-2.61-.729H216.5v5.67Z" transform="translate(131 250)" fill="#a7a7a7"/>
  </g>
</svg>
