<svg xmlns="http://www.w3.org/2000/svg" width="222.615" height="207.144" viewBox="0 0 222.615 207.144">
  <g id="m-logo" transform="translate(-188 -49)">
    <path id="Path_1" data-name="Path 1" d="M343.826,66.95h7.2l.424,130.685h-66.68v-78.33l22.238-22.362h7.334v32l-.041,47.694" transform="translate(45.036 -10.641)" fill="none" stroke="#1db689" stroke-width="14"/>
    <path id="Path_2" data-name="Path 2" d="M344.449,65.635h7v131h-66.68V118.9l22.238-22.192h7.334v78.507" transform="translate(-53.453 -9.635)" fill="none" stroke="#1db689" stroke-width="14"/>
    <line id="Line_1" data-name="Line 1" y2="140.5" transform="translate(195.05 53)" fill="none" stroke="#1db689" stroke-width="14"/>
    <path id="Path_3" data-name="Path 3" d="M26.281-.285,26.2-12.918,20.367-2.78H16.373l-5.837-9.7v12.2H2.28V-28.006H9.73l8.755,14.772L27.01-28.006h7.45L34.537-.285ZM53.007.349a16.175,16.175,0,0,1-7.8-1.861A13.73,13.73,0,0,1,39.8-6.68a14.369,14.369,0,0,1-1.958-7.465A14.369,14.369,0,0,1,39.8-21.611a13.73,13.73,0,0,1,5.415-5.168,16.175,16.175,0,0,1,7.8-1.861,16.175,16.175,0,0,1,7.8,1.861,13.73,13.73,0,0,1,5.415,5.168,14.369,14.369,0,0,1,1.958,7.465A14.369,14.369,0,0,1,66.217-6.68,13.73,13.73,0,0,1,60.8-1.512,16.175,16.175,0,0,1,53.007.349Zm0-7.564a5.645,5.645,0,0,0,3.053-.851,6.027,6.027,0,0,0,2.17-2.416,7.891,7.891,0,0,0,.806-3.663,7.891,7.891,0,0,0-.806-3.663,6.027,6.027,0,0,0-2.17-2.416,5.645,5.645,0,0,0-3.053-.851,5.645,5.645,0,0,0-3.053.851,6.027,6.027,0,0,0-2.17,2.416,7.891,7.891,0,0,0-.806,3.663,7.891,7.891,0,0,0,.806,3.663,6.027,6.027,0,0,0,2.17,2.416A5.645,5.645,0,0,0,53.007-7.215ZM97.975-28.006V-.285H88.912V-10.5H80.541V-.285H71.478V-28.006h9.063v9.821h8.371v-9.821ZM120.67-5.116H110.455l-1.8,4.831H99.434l11.751-27.722h8.909L131.844-.285h-9.37Zm-2.5-6.732-2.611-6.97-2.611,6.97ZM157.3-.285l-.077-12.633L151.39-2.78H147.4l-5.837-9.7v12.2H133.3V-28.006h7.45l8.755,14.772,8.525-14.772h7.45L165.56-.285Zm34.983-7.049V-.285H169.938V-28.006h21.85v7.049H178.847v3.247h11.367v6.732H178.847v3.643Zm3.494-20.672H209.03a17.814,17.814,0,0,1,7.93,1.683,12.545,12.545,0,0,1,5.338,4.812,13.909,13.909,0,0,1,1.9,7.366,13.909,13.909,0,0,1-1.9,7.366,12.545,12.545,0,0,1-5.338,4.812,17.814,17.814,0,0,1-7.93,1.683H195.782ZM208.646-7.572a6.356,6.356,0,0,0,4.666-1.723,6.506,6.506,0,0,0,1.747-4.851A6.506,6.506,0,0,0,213.312-19a6.356,6.356,0,0,0-4.666-1.723h-3.8V-7.572Z" transform="translate(186.417 234.935)" fill="#1f1f1f"/>
    <path id="Path_4" data-name="Path 4" d="M18.911-12.6,14.871-.127H13.058l-3.3-9.962L6.463-.127H4.616L.576-12.6H2.354L5.617-2.461l3.4-10.14h1.588L13.939-2.408,17.271-12.6ZM34.621-1.677v1.55h-8.77V-12.6H34.38v1.55h-6.8v3.832h6.06V-5.7h-6.06v4.028ZM50.384-6.6a3.088,3.088,0,0,1,1.657,1.1,3.213,3.213,0,0,1,.6,2A2.915,2.915,0,0,1,51.463-1a5.744,5.744,0,0,1-3.444.873H42.252V-12.6h5.421a5.219,5.219,0,0,1,3.2.855,2.805,2.805,0,0,1,1.131,2.37,3.158,3.158,0,0,1-.44,1.693A2.9,2.9,0,0,1,50.384-6.6Zm-6.405-4.562v3.992h3.539a3.507,3.507,0,0,0,2.046-.508,1.708,1.708,0,0,0,.716-1.488,1.708,1.708,0,0,0-.716-1.488,3.507,3.507,0,0,0-2.046-.508ZM47.949-1.57a3.984,3.984,0,0,0,2.21-.5A1.755,1.755,0,0,0,50.9-3.637q0-2.085-2.952-2.085H43.979V-1.57ZM69.633-12.6h5.093a7.173,7.173,0,0,1,3.4.784,5.655,5.655,0,0,1,2.3,2.2,6.374,6.374,0,0,1,.82,3.252,6.374,6.374,0,0,1-.82,3.252,5.654,5.654,0,0,1-2.3,2.2,7.173,7.173,0,0,1-3.4.784H69.633ZM74.623-1.677A5.447,5.447,0,0,0,77.2-2.265a4.174,4.174,0,0,0,1.718-1.648,4.862,4.862,0,0,0,.6-2.45,4.862,4.862,0,0,0-.6-2.45A4.174,4.174,0,0,0,77.2-10.463a5.447,5.447,0,0,0-2.581-.588H71.36v9.374Zm22.875,0v1.55h-8.77V-12.6h8.529v1.55h-6.8v3.832h6.06V-5.7h-6.06v4.028ZM115.453-12.6l-5.3,12.475h-1.709L103.126-12.6h1.865l4.351,10.247L113.727-12.6ZM130.594-1.677v1.55h-8.77V-12.6h8.529v1.55h-6.8v3.832h6.06V-5.7h-6.06v4.028ZM138.225-12.6h1.726V-1.677h6.543v1.55h-8.27ZM158.545.016a6.588,6.588,0,0,1-3.3-.829,6.023,6.023,0,0,1-2.3-2.29,6.442,6.442,0,0,1-.837-3.261,6.442,6.442,0,0,1,.837-3.261,6.023,6.023,0,0,1,2.3-2.29,6.588,6.588,0,0,1,3.3-.829,6.554,6.554,0,0,1,3.28.829,5.979,5.979,0,0,1,2.3,2.281,6.48,6.48,0,0,1,.829,3.27,6.48,6.48,0,0,1-.829,3.27,5.979,5.979,0,0,1-2.3,2.281A6.554,6.554,0,0,1,158.545.016Zm0-1.586a4.632,4.632,0,0,0,2.391-.624,4.506,4.506,0,0,0,1.675-1.72,4.934,4.934,0,0,0,.613-2.45,4.934,4.934,0,0,0-.613-2.45,4.506,4.506,0,0,0-1.675-1.72,4.632,4.632,0,0,0-2.391-.624,4.725,4.725,0,0,0-2.408.624,4.469,4.469,0,0,0-1.692,1.72,4.934,4.934,0,0,0-.613,2.45,4.934,4.934,0,0,0,.613,2.45,4.469,4.469,0,0,0,1.692,1.72A4.725,4.725,0,0,0,158.545-1.57ZM177.139-12.6a5.48,5.48,0,0,1,3.695,1.158,3.985,3.985,0,0,1,1.347,3.19,3.985,3.985,0,0,1-1.347,3.19A5.48,5.48,0,0,1,177.139-3.9h-2.987V-.127h-1.726V-12.6Zm-.052,7.146a3.81,3.81,0,0,0,2.5-.722,2.554,2.554,0,0,0,.863-2.076,2.554,2.554,0,0,0-.863-2.076,3.81,3.81,0,0,0-2.5-.722h-2.935v5.6Zm21.235,3.778v1.55h-8.77V-12.6h8.529v1.55h-6.8v3.832h6.06V-5.7h-6.06v4.028Zm15.711,1.55-2.607-3.832q-.483.036-.76.036h-2.987v3.8h-1.726V-12.6h4.713a5.48,5.48,0,0,1,3.695,1.158,3.986,3.986,0,0,1,1.347,3.19,4.27,4.27,0,0,1-.691,2.459,3.912,3.912,0,0,1-1.968,1.479l2.866,4.188Zm-3.418-5.311a3.777,3.777,0,0,0,2.5-.731,2.58,2.58,0,0,0,.863-2.085,2.554,2.554,0,0,0-.863-2.076,3.81,3.81,0,0,0-2.5-.722h-2.935v5.614Z" transform="translate(187.424 256.128)" fill="#a7a7a7"/>
    <rect id="Rectangle_1" data-name="Rectangle 1" width="215" height="14" transform="translate(188 49)" fill="#1db689"/>
  </g>
</svg>
