<svg xmlns="http://www.w3.org/2000/svg" xmlns:xlink="http://www.w3.org/1999/xlink" width="377" height="278" viewBox="0 0 377 278">
  <defs>
    <clipPath id="clip-path">
      <rect width="377" height="278" fill="none"/>
    </clipPath>
  </defs>
  <g id="Repeat_Grid_1" data-name="Repeat Grid 1" clip-path="url(#clip-path)">
    <g transform="translate(-631 -128)">
      <circle id="Ellipse_1" data-name="Ellipse 1" cx="3" cy="3" r="3" transform="translate(631 128)" fill="#e7e7e7"/>
    </g>
    <g transform="translate(-610 -128)">
      <circle id="Ellipse_1-2" data-name="Ellipse 1" cx="3" cy="3" r="3" transform="translate(631 128)" fill="#e7e7e7"/>
    </g>
    <g transform="translate(-589 -128)">
      <circle id="Ellipse_1-3" data-name="Ellipse 1" cx="3" cy="3" r="3" transform="translate(631 128)" fill="#e7e7e7"/>
    </g>
    <g transform="translate(-568 -128)">
      <circle id="Ellipse_1-4" data-name="Ellipse 1" cx="3" cy="3" r="3" transform="translate(631 128)" fill="#e7e7e7"/>
    </g>
    <g transform="translate(-547 -128)">
      <circle id="Ellipse_1-5" data-name="Ellipse 1" cx="3" cy="3" r="3" transform="translate(631 128)" fill="#e7e7e7"/>
    </g>
    <g transform="translate(-526 -128)">
      <circle id="Ellipse_1-6" data-name="Ellipse 1" cx="3" cy="3" r="3" transform="translate(631 128)" fill="#e7e7e7"/>
    </g>
    <g transform="translate(-505 -128)">
      <circle id="Ellipse_1-7" data-name="Ellipse 1" cx="3" cy="3" r="3" transform="translate(631 128)" fill="#e7e7e7"/>
    </g>
    <g transform="translate(-484 -128)">
      <circle id="Ellipse_1-8" data-name="Ellipse 1" cx="3" cy="3" r="3" transform="translate(631 128)" fill="#e7e7e7"/>
    </g>
    <g transform="translate(-463 -128)">
      <circle id="Ellipse_1-9" data-name="Ellipse 1" cx="3" cy="3" r="3" transform="translate(631 128)" fill="#e7e7e7"/>
    </g>
    <g transform="translate(-442 -128)">
      <circle id="Ellipse_1-10" data-name="Ellipse 1" cx="3" cy="3" r="3" transform="translate(631 128)" fill="#e7e7e7"/>
    </g>
    <g transform="translate(-421 -128)">
      <circle id="Ellipse_1-11" data-name="Ellipse 1" cx="3" cy="3" r="3" transform="translate(631 128)" fill="#e7e7e7"/>
    </g>
    <g transform="translate(-400 -128)">
      <circle id="Ellipse_1-12" data-name="Ellipse 1" cx="3" cy="3" r="3" transform="translate(631 128)" fill="#e7e7e7"/>
    </g>
    <g transform="translate(-379 -128)">
      <circle id="Ellipse_1-13" data-name="Ellipse 1" cx="3" cy="3" r="3" transform="translate(631 128)" fill="#e7e7e7"/>
    </g>
    <g transform="translate(-358 -128)">
      <circle id="Ellipse_1-14" data-name="Ellipse 1" cx="3" cy="3" r="3" transform="translate(631 128)" fill="#e7e7e7"/>
    </g>
    <g transform="translate(-337 -128)">
      <circle id="Ellipse_1-15" data-name="Ellipse 1" cx="3" cy="3" r="3" transform="translate(631 128)" fill="#e7e7e7"/>
    </g>
    <g transform="translate(-316 -128)">
      <circle id="Ellipse_1-16" data-name="Ellipse 1" cx="3" cy="3" r="3" transform="translate(631 128)" fill="#e7e7e7"/>
    </g>
    <g transform="translate(-295 -128)">
      <circle id="Ellipse_1-17" data-name="Ellipse 1" cx="3" cy="3" r="3" transform="translate(631 128)" fill="#e7e7e7"/>
    </g>
    <g transform="translate(-274 -128)">
      <circle id="Ellipse_1-18" data-name="Ellipse 1" cx="3" cy="3" r="3" transform="translate(631 128)" fill="#e7e7e7"/>
    </g>
    <g transform="translate(-631 -110)">
      <circle id="Ellipse_1-19" data-name="Ellipse 1" cx="3" cy="3" r="3" transform="translate(631 128)" fill="#e7e7e7"/>
    </g>
    <g transform="translate(-610 -110)">
      <circle id="Ellipse_1-20" data-name="Ellipse 1" cx="3" cy="3" r="3" transform="translate(631 128)" fill="#e7e7e7"/>
    </g>
    <g transform="translate(-589 -110)">
      <circle id="Ellipse_1-21" data-name="Ellipse 1" cx="3" cy="3" r="3" transform="translate(631 128)" fill="#e7e7e7"/>
    </g>
    <g transform="translate(-568 -110)">
      <circle id="Ellipse_1-22" data-name="Ellipse 1" cx="3" cy="3" r="3" transform="translate(631 128)" fill="#e7e7e7"/>
    </g>
    <g transform="translate(-547 -110)">
      <circle id="Ellipse_1-23" data-name="Ellipse 1" cx="3" cy="3" r="3" transform="translate(631 128)" fill="#e7e7e7"/>
    </g>
    <g transform="translate(-526 -110)">
      <circle id="Ellipse_1-24" data-name="Ellipse 1" cx="3" cy="3" r="3" transform="translate(631 128)" fill="#e7e7e7"/>
    </g>
    <g transform="translate(-505 -110)">
      <circle id="Ellipse_1-25" data-name="Ellipse 1" cx="3" cy="3" r="3" transform="translate(631 128)" fill="#e7e7e7"/>
    </g>
    <g transform="translate(-484 -110)">
      <circle id="Ellipse_1-26" data-name="Ellipse 1" cx="3" cy="3" r="3" transform="translate(631 128)" fill="#e7e7e7"/>
    </g>
    <g transform="translate(-463 -110)">
      <circle id="Ellipse_1-27" data-name="Ellipse 1" cx="3" cy="3" r="3" transform="translate(631 128)" fill="#e7e7e7"/>
    </g>
    <g transform="translate(-442 -110)">
      <circle id="Ellipse_1-28" data-name="Ellipse 1" cx="3" cy="3" r="3" transform="translate(631 128)" fill="#e7e7e7"/>
    </g>
    <g transform="translate(-421 -110)">
      <circle id="Ellipse_1-29" data-name="Ellipse 1" cx="3" cy="3" r="3" transform="translate(631 128)" fill="#e7e7e7"/>
    </g>
    <g transform="translate(-400 -110)">
      <circle id="Ellipse_1-30" data-name="Ellipse 1" cx="3" cy="3" r="3" transform="translate(631 128)" fill="#e7e7e7"/>
    </g>
    <g transform="translate(-379 -110)">
      <circle id="Ellipse_1-31" data-name="Ellipse 1" cx="3" cy="3" r="3" transform="translate(631 128)" fill="#e7e7e7"/>
    </g>
    <g transform="translate(-358 -110)">
      <circle id="Ellipse_1-32" data-name="Ellipse 1" cx="3" cy="3" r="3" transform="translate(631 128)" fill="#e7e7e7"/>
    </g>
    <g transform="translate(-337 -110)">
      <circle id="Ellipse_1-33" data-name="Ellipse 1" cx="3" cy="3" r="3" transform="translate(631 128)" fill="#e7e7e7"/>
    </g>
    <g transform="translate(-316 -110)">
      <circle id="Ellipse_1-34" data-name="Ellipse 1" cx="3" cy="3" r="3" transform="translate(631 128)" fill="#e7e7e7"/>
    </g>
    <g transform="translate(-295 -110)">
      <circle id="Ellipse_1-35" data-name="Ellipse 1" cx="3" cy="3" r="3" transform="translate(631 128)" fill="#e7e7e7"/>
    </g>
    <g transform="translate(-274 -110)">
      <circle id="Ellipse_1-36" data-name="Ellipse 1" cx="3" cy="3" r="3" transform="translate(631 128)" fill="#e7e7e7"/>
    </g>
    <g transform="translate(-631 -92)">
      <circle id="Ellipse_1-37" data-name="Ellipse 1" cx="3" cy="3" r="3" transform="translate(631 128)" fill="#e7e7e7"/>
    </g>
    <g transform="translate(-610 -92)">
      <circle id="Ellipse_1-38" data-name="Ellipse 1" cx="3" cy="3" r="3" transform="translate(631 128)" fill="#e7e7e7"/>
    </g>
    <g transform="translate(-589 -92)">
      <circle id="Ellipse_1-39" data-name="Ellipse 1" cx="3" cy="3" r="3" transform="translate(631 128)" fill="#e7e7e7"/>
    </g>
    <g transform="translate(-568 -92)">
      <circle id="Ellipse_1-40" data-name="Ellipse 1" cx="3" cy="3" r="3" transform="translate(631 128)" fill="#e7e7e7"/>
    </g>
    <g transform="translate(-547 -92)">
      <circle id="Ellipse_1-41" data-name="Ellipse 1" cx="3" cy="3" r="3" transform="translate(631 128)" fill="#e7e7e7"/>
    </g>
    <g transform="translate(-526 -92)">
      <circle id="Ellipse_1-42" data-name="Ellipse 1" cx="3" cy="3" r="3" transform="translate(631 128)" fill="#e7e7e7"/>
    </g>
    <g transform="translate(-505 -92)">
      <circle id="Ellipse_1-43" data-name="Ellipse 1" cx="3" cy="3" r="3" transform="translate(631 128)" fill="#e7e7e7"/>
    </g>
    <g transform="translate(-484 -92)">
      <circle id="Ellipse_1-44" data-name="Ellipse 1" cx="3" cy="3" r="3" transform="translate(631 128)" fill="#e7e7e7"/>
    </g>
    <g transform="translate(-463 -92)">
      <circle id="Ellipse_1-45" data-name="Ellipse 1" cx="3" cy="3" r="3" transform="translate(631 128)" fill="#e7e7e7"/>
    </g>
    <g transform="translate(-442 -92)">
      <circle id="Ellipse_1-46" data-name="Ellipse 1" cx="3" cy="3" r="3" transform="translate(631 128)" fill="#e7e7e7"/>
    </g>
    <g transform="translate(-421 -92)">
      <circle id="Ellipse_1-47" data-name="Ellipse 1" cx="3" cy="3" r="3" transform="translate(631 128)" fill="#e7e7e7"/>
    </g>
    <g transform="translate(-400 -92)">
      <circle id="Ellipse_1-48" data-name="Ellipse 1" cx="3" cy="3" r="3" transform="translate(631 128)" fill="#e7e7e7"/>
    </g>
    <g transform="translate(-379 -92)">
      <circle id="Ellipse_1-49" data-name="Ellipse 1" cx="3" cy="3" r="3" transform="translate(631 128)" fill="#e7e7e7"/>
    </g>
    <g transform="translate(-358 -92)">
      <circle id="Ellipse_1-50" data-name="Ellipse 1" cx="3" cy="3" r="3" transform="translate(631 128)" fill="#e7e7e7"/>
    </g>
    <g transform="translate(-337 -92)">
      <circle id="Ellipse_1-51" data-name="Ellipse 1" cx="3" cy="3" r="3" transform="translate(631 128)" fill="#e7e7e7"/>
    </g>
    <g transform="translate(-316 -92)">
      <circle id="Ellipse_1-52" data-name="Ellipse 1" cx="3" cy="3" r="3" transform="translate(631 128)" fill="#e7e7e7"/>
    </g>
    <g transform="translate(-295 -92)">
      <circle id="Ellipse_1-53" data-name="Ellipse 1" cx="3" cy="3" r="3" transform="translate(631 128)" fill="#e7e7e7"/>
    </g>
    <g transform="translate(-274 -92)">
      <circle id="Ellipse_1-54" data-name="Ellipse 1" cx="3" cy="3" r="3" transform="translate(631 128)" fill="#e7e7e7"/>
    </g>
    <g transform="translate(-631 -74)">
      <circle id="Ellipse_1-55" data-name="Ellipse 1" cx="3" cy="3" r="3" transform="translate(631 128)" fill="#e7e7e7"/>
    </g>
    <g transform="translate(-610 -74)">
      <circle id="Ellipse_1-56" data-name="Ellipse 1" cx="3" cy="3" r="3" transform="translate(631 128)" fill="#e7e7e7"/>
    </g>
    <g transform="translate(-589 -74)">
      <circle id="Ellipse_1-57" data-name="Ellipse 1" cx="3" cy="3" r="3" transform="translate(631 128)" fill="#e7e7e7"/>
    </g>
    <g transform="translate(-568 -74)">
      <circle id="Ellipse_1-58" data-name="Ellipse 1" cx="3" cy="3" r="3" transform="translate(631 128)" fill="#e7e7e7"/>
    </g>
    <g transform="translate(-547 -74)">
      <circle id="Ellipse_1-59" data-name="Ellipse 1" cx="3" cy="3" r="3" transform="translate(631 128)" fill="#e7e7e7"/>
    </g>
    <g transform="translate(-526 -74)">
      <circle id="Ellipse_1-60" data-name="Ellipse 1" cx="3" cy="3" r="3" transform="translate(631 128)" fill="#e7e7e7"/>
    </g>
    <g transform="translate(-505 -74)">
      <circle id="Ellipse_1-61" data-name="Ellipse 1" cx="3" cy="3" r="3" transform="translate(631 128)" fill="#e7e7e7"/>
    </g>
    <g transform="translate(-484 -74)">
      <circle id="Ellipse_1-62" data-name="Ellipse 1" cx="3" cy="3" r="3" transform="translate(631 128)" fill="#e7e7e7"/>
    </g>
    <g transform="translate(-463 -74)">
      <circle id="Ellipse_1-63" data-name="Ellipse 1" cx="3" cy="3" r="3" transform="translate(631 128)" fill="#e7e7e7"/>
    </g>
    <g transform="translate(-442 -74)">
      <circle id="Ellipse_1-64" data-name="Ellipse 1" cx="3" cy="3" r="3" transform="translate(631 128)" fill="#e7e7e7"/>
    </g>
    <g transform="translate(-421 -74)">
      <circle id="Ellipse_1-65" data-name="Ellipse 1" cx="3" cy="3" r="3" transform="translate(631 128)" fill="#e7e7e7"/>
    </g>
    <g transform="translate(-400 -74)">
      <circle id="Ellipse_1-66" data-name="Ellipse 1" cx="3" cy="3" r="3" transform="translate(631 128)" fill="#e7e7e7"/>
    </g>
    <g transform="translate(-379 -74)">
      <circle id="Ellipse_1-67" data-name="Ellipse 1" cx="3" cy="3" r="3" transform="translate(631 128)" fill="#e7e7e7"/>
    </g>
    <g transform="translate(-358 -74)">
      <circle id="Ellipse_1-68" data-name="Ellipse 1" cx="3" cy="3" r="3" transform="translate(631 128)" fill="#e7e7e7"/>
    </g>
    <g transform="translate(-337 -74)">
      <circle id="Ellipse_1-69" data-name="Ellipse 1" cx="3" cy="3" r="3" transform="translate(631 128)" fill="#e7e7e7"/>
    </g>
    <g transform="translate(-316 -74)">
      <circle id="Ellipse_1-70" data-name="Ellipse 1" cx="3" cy="3" r="3" transform="translate(631 128)" fill="#e7e7e7"/>
    </g>
    <g transform="translate(-295 -74)">
      <circle id="Ellipse_1-71" data-name="Ellipse 1" cx="3" cy="3" r="3" transform="translate(631 128)" fill="#e7e7e7"/>
    </g>
    <g transform="translate(-274 -74)">
      <circle id="Ellipse_1-72" data-name="Ellipse 1" cx="3" cy="3" r="3" transform="translate(631 128)" fill="#e7e7e7"/>
    </g>
    <g transform="translate(-631 -56)">
      <circle id="Ellipse_1-73" data-name="Ellipse 1" cx="3" cy="3" r="3" transform="translate(631 128)" fill="#e7e7e7"/>
    </g>
    <g transform="translate(-610 -56)">
      <circle id="Ellipse_1-74" data-name="Ellipse 1" cx="3" cy="3" r="3" transform="translate(631 128)" fill="#e7e7e7"/>
    </g>
    <g transform="translate(-589 -56)">
      <circle id="Ellipse_1-75" data-name="Ellipse 1" cx="3" cy="3" r="3" transform="translate(631 128)" fill="#e7e7e7"/>
    </g>
    <g transform="translate(-568 -56)">
      <circle id="Ellipse_1-76" data-name="Ellipse 1" cx="3" cy="3" r="3" transform="translate(631 128)" fill="#e7e7e7"/>
    </g>
    <g transform="translate(-547 -56)">
      <circle id="Ellipse_1-77" data-name="Ellipse 1" cx="3" cy="3" r="3" transform="translate(631 128)" fill="#e7e7e7"/>
    </g>
    <g transform="translate(-526 -56)">
      <circle id="Ellipse_1-78" data-name="Ellipse 1" cx="3" cy="3" r="3" transform="translate(631 128)" fill="#e7e7e7"/>
    </g>
    <g transform="translate(-505 -56)">
      <circle id="Ellipse_1-79" data-name="Ellipse 1" cx="3" cy="3" r="3" transform="translate(631 128)" fill="#e7e7e7"/>
    </g>
    <g transform="translate(-484 -56)">
      <circle id="Ellipse_1-80" data-name="Ellipse 1" cx="3" cy="3" r="3" transform="translate(631 128)" fill="#e7e7e7"/>
    </g>
    <g transform="translate(-463 -56)">
      <circle id="Ellipse_1-81" data-name="Ellipse 1" cx="3" cy="3" r="3" transform="translate(631 128)" fill="#e7e7e7"/>
    </g>
    <g transform="translate(-442 -56)">
      <circle id="Ellipse_1-82" data-name="Ellipse 1" cx="3" cy="3" r="3" transform="translate(631 128)" fill="#e7e7e7"/>
    </g>
    <g transform="translate(-421 -56)">
      <circle id="Ellipse_1-83" data-name="Ellipse 1" cx="3" cy="3" r="3" transform="translate(631 128)" fill="#e7e7e7"/>
    </g>
    <g transform="translate(-400 -56)">
      <circle id="Ellipse_1-84" data-name="Ellipse 1" cx="3" cy="3" r="3" transform="translate(631 128)" fill="#e7e7e7"/>
    </g>
    <g transform="translate(-379 -56)">
      <circle id="Ellipse_1-85" data-name="Ellipse 1" cx="3" cy="3" r="3" transform="translate(631 128)" fill="#e7e7e7"/>
    </g>
    <g transform="translate(-358 -56)">
      <circle id="Ellipse_1-86" data-name="Ellipse 1" cx="3" cy="3" r="3" transform="translate(631 128)" fill="#e7e7e7"/>
    </g>
    <g transform="translate(-337 -56)">
      <circle id="Ellipse_1-87" data-name="Ellipse 1" cx="3" cy="3" r="3" transform="translate(631 128)" fill="#e7e7e7"/>
    </g>
    <g transform="translate(-316 -56)">
      <circle id="Ellipse_1-88" data-name="Ellipse 1" cx="3" cy="3" r="3" transform="translate(631 128)" fill="#e7e7e7"/>
    </g>
    <g transform="translate(-295 -56)">
      <circle id="Ellipse_1-89" data-name="Ellipse 1" cx="3" cy="3" r="3" transform="translate(631 128)" fill="#e7e7e7"/>
    </g>
    <g transform="translate(-274 -56)">
      <circle id="Ellipse_1-90" data-name="Ellipse 1" cx="3" cy="3" r="3" transform="translate(631 128)" fill="#e7e7e7"/>
    </g>
    <g transform="translate(-631 -38)">
      <circle id="Ellipse_1-91" data-name="Ellipse 1" cx="3" cy="3" r="3" transform="translate(631 128)" fill="#e7e7e7"/>
    </g>
    <g transform="translate(-610 -38)">
      <circle id="Ellipse_1-92" data-name="Ellipse 1" cx="3" cy="3" r="3" transform="translate(631 128)" fill="#e7e7e7"/>
    </g>
    <g transform="translate(-589 -38)">
      <circle id="Ellipse_1-93" data-name="Ellipse 1" cx="3" cy="3" r="3" transform="translate(631 128)" fill="#e7e7e7"/>
    </g>
    <g transform="translate(-568 -38)">
      <circle id="Ellipse_1-94" data-name="Ellipse 1" cx="3" cy="3" r="3" transform="translate(631 128)" fill="#e7e7e7"/>
    </g>
    <g transform="translate(-547 -38)">
      <circle id="Ellipse_1-95" data-name="Ellipse 1" cx="3" cy="3" r="3" transform="translate(631 128)" fill="#e7e7e7"/>
    </g>
    <g transform="translate(-526 -38)">
      <circle id="Ellipse_1-96" data-name="Ellipse 1" cx="3" cy="3" r="3" transform="translate(631 128)" fill="#e7e7e7"/>
    </g>
    <g transform="translate(-505 -38)">
      <circle id="Ellipse_1-97" data-name="Ellipse 1" cx="3" cy="3" r="3" transform="translate(631 128)" fill="#e7e7e7"/>
    </g>
    <g transform="translate(-484 -38)">
      <circle id="Ellipse_1-98" data-name="Ellipse 1" cx="3" cy="3" r="3" transform="translate(631 128)" fill="#e7e7e7"/>
    </g>
    <g transform="translate(-463 -38)">
      <circle id="Ellipse_1-99" data-name="Ellipse 1" cx="3" cy="3" r="3" transform="translate(631 128)" fill="#e7e7e7"/>
    </g>
    <g transform="translate(-442 -38)">
      <circle id="Ellipse_1-100" data-name="Ellipse 1" cx="3" cy="3" r="3" transform="translate(631 128)" fill="#e7e7e7"/>
    </g>
    <g transform="translate(-421 -38)">
      <circle id="Ellipse_1-101" data-name="Ellipse 1" cx="3" cy="3" r="3" transform="translate(631 128)" fill="#e7e7e7"/>
    </g>
    <g transform="translate(-400 -38)">
      <circle id="Ellipse_1-102" data-name="Ellipse 1" cx="3" cy="3" r="3" transform="translate(631 128)" fill="#e7e7e7"/>
    </g>
    <g transform="translate(-379 -38)">
      <circle id="Ellipse_1-103" data-name="Ellipse 1" cx="3" cy="3" r="3" transform="translate(631 128)" fill="#e7e7e7"/>
    </g>
    <g transform="translate(-358 -38)">
      <circle id="Ellipse_1-104" data-name="Ellipse 1" cx="3" cy="3" r="3" transform="translate(631 128)" fill="#e7e7e7"/>
    </g>
    <g transform="translate(-337 -38)">
      <circle id="Ellipse_1-105" data-name="Ellipse 1" cx="3" cy="3" r="3" transform="translate(631 128)" fill="#e7e7e7"/>
    </g>
    <g transform="translate(-316 -38)">
      <circle id="Ellipse_1-106" data-name="Ellipse 1" cx="3" cy="3" r="3" transform="translate(631 128)" fill="#e7e7e7"/>
    </g>
    <g transform="translate(-295 -38)">
      <circle id="Ellipse_1-107" data-name="Ellipse 1" cx="3" cy="3" r="3" transform="translate(631 128)" fill="#e7e7e7"/>
    </g>
    <g transform="translate(-274 -38)">
      <circle id="Ellipse_1-108" data-name="Ellipse 1" cx="3" cy="3" r="3" transform="translate(631 128)" fill="#e7e7e7"/>
    </g>
    <g transform="translate(-631 -20)">
      <circle id="Ellipse_1-109" data-name="Ellipse 1" cx="3" cy="3" r="3" transform="translate(631 128)" fill="#e7e7e7"/>
    </g>
    <g transform="translate(-610 -20)">
      <circle id="Ellipse_1-110" data-name="Ellipse 1" cx="3" cy="3" r="3" transform="translate(631 128)" fill="#e7e7e7"/>
    </g>
    <g transform="translate(-589 -20)">
      <circle id="Ellipse_1-111" data-name="Ellipse 1" cx="3" cy="3" r="3" transform="translate(631 128)" fill="#e7e7e7"/>
    </g>
    <g transform="translate(-568 -20)">
      <circle id="Ellipse_1-112" data-name="Ellipse 1" cx="3" cy="3" r="3" transform="translate(631 128)" fill="#e7e7e7"/>
    </g>
    <g transform="translate(-547 -20)">
      <circle id="Ellipse_1-113" data-name="Ellipse 1" cx="3" cy="3" r="3" transform="translate(631 128)" fill="#e7e7e7"/>
    </g>
    <g transform="translate(-526 -20)">
      <circle id="Ellipse_1-114" data-name="Ellipse 1" cx="3" cy="3" r="3" transform="translate(631 128)" fill="#e7e7e7"/>
    </g>
    <g transform="translate(-505 -20)">
      <circle id="Ellipse_1-115" data-name="Ellipse 1" cx="3" cy="3" r="3" transform="translate(631 128)" fill="#e7e7e7"/>
    </g>
    <g transform="translate(-484 -20)">
      <circle id="Ellipse_1-116" data-name="Ellipse 1" cx="3" cy="3" r="3" transform="translate(631 128)" fill="#e7e7e7"/>
    </g>
    <g transform="translate(-463 -20)">
      <circle id="Ellipse_1-117" data-name="Ellipse 1" cx="3" cy="3" r="3" transform="translate(631 128)" fill="#e7e7e7"/>
    </g>
    <g transform="translate(-442 -20)">
      <circle id="Ellipse_1-118" data-name="Ellipse 1" cx="3" cy="3" r="3" transform="translate(631 128)" fill="#e7e7e7"/>
    </g>
    <g transform="translate(-421 -20)">
      <circle id="Ellipse_1-119" data-name="Ellipse 1" cx="3" cy="3" r="3" transform="translate(631 128)" fill="#e7e7e7"/>
    </g>
    <g transform="translate(-400 -20)">
      <circle id="Ellipse_1-120" data-name="Ellipse 1" cx="3" cy="3" r="3" transform="translate(631 128)" fill="#e7e7e7"/>
    </g>
    <g transform="translate(-379 -20)">
      <circle id="Ellipse_1-121" data-name="Ellipse 1" cx="3" cy="3" r="3" transform="translate(631 128)" fill="#e7e7e7"/>
    </g>
    <g transform="translate(-358 -20)">
      <circle id="Ellipse_1-122" data-name="Ellipse 1" cx="3" cy="3" r="3" transform="translate(631 128)" fill="#e7e7e7"/>
    </g>
    <g transform="translate(-337 -20)">
      <circle id="Ellipse_1-123" data-name="Ellipse 1" cx="3" cy="3" r="3" transform="translate(631 128)" fill="#e7e7e7"/>
    </g>
    <g transform="translate(-316 -20)">
      <circle id="Ellipse_1-124" data-name="Ellipse 1" cx="3" cy="3" r="3" transform="translate(631 128)" fill="#e7e7e7"/>
    </g>
    <g transform="translate(-295 -20)">
      <circle id="Ellipse_1-125" data-name="Ellipse 1" cx="3" cy="3" r="3" transform="translate(631 128)" fill="#e7e7e7"/>
    </g>
    <g transform="translate(-274 -20)">
      <circle id="Ellipse_1-126" data-name="Ellipse 1" cx="3" cy="3" r="3" transform="translate(631 128)" fill="#e7e7e7"/>
    </g>
    <g transform="translate(-631 -2)">
      <circle id="Ellipse_1-127" data-name="Ellipse 1" cx="3" cy="3" r="3" transform="translate(631 128)" fill="#e7e7e7"/>
    </g>
    <g transform="translate(-610 -2)">
      <circle id="Ellipse_1-128" data-name="Ellipse 1" cx="3" cy="3" r="3" transform="translate(631 128)" fill="#e7e7e7"/>
    </g>
    <g transform="translate(-589 -2)">
      <circle id="Ellipse_1-129" data-name="Ellipse 1" cx="3" cy="3" r="3" transform="translate(631 128)" fill="#e7e7e7"/>
    </g>
    <g transform="translate(-568 -2)">
      <circle id="Ellipse_1-130" data-name="Ellipse 1" cx="3" cy="3" r="3" transform="translate(631 128)" fill="#e7e7e7"/>
    </g>
    <g transform="translate(-547 -2)">
      <circle id="Ellipse_1-131" data-name="Ellipse 1" cx="3" cy="3" r="3" transform="translate(631 128)" fill="#e7e7e7"/>
    </g>
    <g transform="translate(-526 -2)">
      <circle id="Ellipse_1-132" data-name="Ellipse 1" cx="3" cy="3" r="3" transform="translate(631 128)" fill="#e7e7e7"/>
    </g>
    <g transform="translate(-505 -2)">
      <circle id="Ellipse_1-133" data-name="Ellipse 1" cx="3" cy="3" r="3" transform="translate(631 128)" fill="#e7e7e7"/>
    </g>
    <g transform="translate(-484 -2)">
      <circle id="Ellipse_1-134" data-name="Ellipse 1" cx="3" cy="3" r="3" transform="translate(631 128)" fill="#e7e7e7"/>
    </g>
    <g transform="translate(-463 -2)">
      <circle id="Ellipse_1-135" data-name="Ellipse 1" cx="3" cy="3" r="3" transform="translate(631 128)" fill="#e7e7e7"/>
    </g>
    <g transform="translate(-442 -2)">
      <circle id="Ellipse_1-136" data-name="Ellipse 1" cx="3" cy="3" r="3" transform="translate(631 128)" fill="#e7e7e7"/>
    </g>
    <g transform="translate(-421 -2)">
      <circle id="Ellipse_1-137" data-name="Ellipse 1" cx="3" cy="3" r="3" transform="translate(631 128)" fill="#e7e7e7"/>
    </g>
    <g transform="translate(-400 -2)">
      <circle id="Ellipse_1-138" data-name="Ellipse 1" cx="3" cy="3" r="3" transform="translate(631 128)" fill="#e7e7e7"/>
    </g>
    <g transform="translate(-379 -2)">
      <circle id="Ellipse_1-139" data-name="Ellipse 1" cx="3" cy="3" r="3" transform="translate(631 128)" fill="#e7e7e7"/>
    </g>
    <g transform="translate(-358 -2)">
      <circle id="Ellipse_1-140" data-name="Ellipse 1" cx="3" cy="3" r="3" transform="translate(631 128)" fill="#e7e7e7"/>
    </g>
    <g transform="translate(-337 -2)">
      <circle id="Ellipse_1-141" data-name="Ellipse 1" cx="3" cy="3" r="3" transform="translate(631 128)" fill="#e7e7e7"/>
    </g>
    <g transform="translate(-316 -2)">
      <circle id="Ellipse_1-142" data-name="Ellipse 1" cx="3" cy="3" r="3" transform="translate(631 128)" fill="#e7e7e7"/>
    </g>
    <g transform="translate(-295 -2)">
      <circle id="Ellipse_1-143" data-name="Ellipse 1" cx="3" cy="3" r="3" transform="translate(631 128)" fill="#e7e7e7"/>
    </g>
    <g transform="translate(-274 -2)">
      <circle id="Ellipse_1-144" data-name="Ellipse 1" cx="3" cy="3" r="3" transform="translate(631 128)" fill="#e7e7e7"/>
    </g>
    <g transform="translate(-631 16)">
      <circle id="Ellipse_1-145" data-name="Ellipse 1" cx="3" cy="3" r="3" transform="translate(631 128)" fill="#e7e7e7"/>
    </g>
    <g transform="translate(-610 16)">
      <circle id="Ellipse_1-146" data-name="Ellipse 1" cx="3" cy="3" r="3" transform="translate(631 128)" fill="#e7e7e7"/>
    </g>
    <g transform="translate(-589 16)">
      <circle id="Ellipse_1-147" data-name="Ellipse 1" cx="3" cy="3" r="3" transform="translate(631 128)" fill="#e7e7e7"/>
    </g>
    <g transform="translate(-568 16)">
      <circle id="Ellipse_1-148" data-name="Ellipse 1" cx="3" cy="3" r="3" transform="translate(631 128)" fill="#e7e7e7"/>
    </g>
    <g transform="translate(-547 16)">
      <circle id="Ellipse_1-149" data-name="Ellipse 1" cx="3" cy="3" r="3" transform="translate(631 128)" fill="#e7e7e7"/>
    </g>
    <g transform="translate(-526 16)">
      <circle id="Ellipse_1-150" data-name="Ellipse 1" cx="3" cy="3" r="3" transform="translate(631 128)" fill="#e7e7e7"/>
    </g>
    <g transform="translate(-505 16)">
      <circle id="Ellipse_1-151" data-name="Ellipse 1" cx="3" cy="3" r="3" transform="translate(631 128)" fill="#e7e7e7"/>
    </g>
    <g transform="translate(-484 16)">
      <circle id="Ellipse_1-152" data-name="Ellipse 1" cx="3" cy="3" r="3" transform="translate(631 128)" fill="#e7e7e7"/>
    </g>
    <g transform="translate(-463 16)">
      <circle id="Ellipse_1-153" data-name="Ellipse 1" cx="3" cy="3" r="3" transform="translate(631 128)" fill="#e7e7e7"/>
    </g>
    <g transform="translate(-442 16)">
      <circle id="Ellipse_1-154" data-name="Ellipse 1" cx="3" cy="3" r="3" transform="translate(631 128)" fill="#e7e7e7"/>
    </g>
    <g transform="translate(-421 16)">
      <circle id="Ellipse_1-155" data-name="Ellipse 1" cx="3" cy="3" r="3" transform="translate(631 128)" fill="#e7e7e7"/>
    </g>
    <g transform="translate(-400 16)">
      <circle id="Ellipse_1-156" data-name="Ellipse 1" cx="3" cy="3" r="3" transform="translate(631 128)" fill="#e7e7e7"/>
    </g>
    <g transform="translate(-379 16)">
      <circle id="Ellipse_1-157" data-name="Ellipse 1" cx="3" cy="3" r="3" transform="translate(631 128)" fill="#e7e7e7"/>
    </g>
    <g transform="translate(-358 16)">
      <circle id="Ellipse_1-158" data-name="Ellipse 1" cx="3" cy="3" r="3" transform="translate(631 128)" fill="#e7e7e7"/>
    </g>
    <g transform="translate(-337 16)">
      <circle id="Ellipse_1-159" data-name="Ellipse 1" cx="3" cy="3" r="3" transform="translate(631 128)" fill="#e7e7e7"/>
    </g>
    <g transform="translate(-316 16)">
      <circle id="Ellipse_1-160" data-name="Ellipse 1" cx="3" cy="3" r="3" transform="translate(631 128)" fill="#e7e7e7"/>
    </g>
    <g transform="translate(-295 16)">
      <circle id="Ellipse_1-161" data-name="Ellipse 1" cx="3" cy="3" r="3" transform="translate(631 128)" fill="#e7e7e7"/>
    </g>
    <g transform="translate(-274 16)">
      <circle id="Ellipse_1-162" data-name="Ellipse 1" cx="3" cy="3" r="3" transform="translate(631 128)" fill="#e7e7e7"/>
    </g>
    <g transform="translate(-631 34)">
      <circle id="Ellipse_1-163" data-name="Ellipse 1" cx="3" cy="3" r="3" transform="translate(631 128)" fill="#e7e7e7"/>
    </g>
    <g transform="translate(-610 34)">
      <circle id="Ellipse_1-164" data-name="Ellipse 1" cx="3" cy="3" r="3" transform="translate(631 128)" fill="#e7e7e7"/>
    </g>
    <g transform="translate(-589 34)">
      <circle id="Ellipse_1-165" data-name="Ellipse 1" cx="3" cy="3" r="3" transform="translate(631 128)" fill="#e7e7e7"/>
    </g>
    <g transform="translate(-568 34)">
      <circle id="Ellipse_1-166" data-name="Ellipse 1" cx="3" cy="3" r="3" transform="translate(631 128)" fill="#e7e7e7"/>
    </g>
    <g transform="translate(-547 34)">
      <circle id="Ellipse_1-167" data-name="Ellipse 1" cx="3" cy="3" r="3" transform="translate(631 128)" fill="#e7e7e7"/>
    </g>
    <g transform="translate(-526 34)">
      <circle id="Ellipse_1-168" data-name="Ellipse 1" cx="3" cy="3" r="3" transform="translate(631 128)" fill="#e7e7e7"/>
    </g>
    <g transform="translate(-505 34)">
      <circle id="Ellipse_1-169" data-name="Ellipse 1" cx="3" cy="3" r="3" transform="translate(631 128)" fill="#e7e7e7"/>
    </g>
    <g transform="translate(-484 34)">
      <circle id="Ellipse_1-170" data-name="Ellipse 1" cx="3" cy="3" r="3" transform="translate(631 128)" fill="#e7e7e7"/>
    </g>
    <g transform="translate(-463 34)">
      <circle id="Ellipse_1-171" data-name="Ellipse 1" cx="3" cy="3" r="3" transform="translate(631 128)" fill="#e7e7e7"/>
    </g>
    <g transform="translate(-442 34)">
      <circle id="Ellipse_1-172" data-name="Ellipse 1" cx="3" cy="3" r="3" transform="translate(631 128)" fill="#e7e7e7"/>
    </g>
    <g transform="translate(-421 34)">
      <circle id="Ellipse_1-173" data-name="Ellipse 1" cx="3" cy="3" r="3" transform="translate(631 128)" fill="#e7e7e7"/>
    </g>
    <g transform="translate(-400 34)">
      <circle id="Ellipse_1-174" data-name="Ellipse 1" cx="3" cy="3" r="3" transform="translate(631 128)" fill="#e7e7e7"/>
    </g>
    <g transform="translate(-379 34)">
      <circle id="Ellipse_1-175" data-name="Ellipse 1" cx="3" cy="3" r="3" transform="translate(631 128)" fill="#e7e7e7"/>
    </g>
    <g transform="translate(-358 34)">
      <circle id="Ellipse_1-176" data-name="Ellipse 1" cx="3" cy="3" r="3" transform="translate(631 128)" fill="#e7e7e7"/>
    </g>
    <g transform="translate(-337 34)">
      <circle id="Ellipse_1-177" data-name="Ellipse 1" cx="3" cy="3" r="3" transform="translate(631 128)" fill="#e7e7e7"/>
    </g>
    <g transform="translate(-316 34)">
      <circle id="Ellipse_1-178" data-name="Ellipse 1" cx="3" cy="3" r="3" transform="translate(631 128)" fill="#e7e7e7"/>
    </g>
    <g transform="translate(-295 34)">
      <circle id="Ellipse_1-179" data-name="Ellipse 1" cx="3" cy="3" r="3" transform="translate(631 128)" fill="#e7e7e7"/>
    </g>
    <g transform="translate(-274 34)">
      <circle id="Ellipse_1-180" data-name="Ellipse 1" cx="3" cy="3" r="3" transform="translate(631 128)" fill="#e7e7e7"/>
    </g>
    <g transform="translate(-631 52)">
      <circle id="Ellipse_1-181" data-name="Ellipse 1" cx="3" cy="3" r="3" transform="translate(631 128)" fill="#e7e7e7"/>
    </g>
    <g transform="translate(-610 52)">
      <circle id="Ellipse_1-182" data-name="Ellipse 1" cx="3" cy="3" r="3" transform="translate(631 128)" fill="#e7e7e7"/>
    </g>
    <g transform="translate(-589 52)">
      <circle id="Ellipse_1-183" data-name="Ellipse 1" cx="3" cy="3" r="3" transform="translate(631 128)" fill="#e7e7e7"/>
    </g>
    <g transform="translate(-568 52)">
      <circle id="Ellipse_1-184" data-name="Ellipse 1" cx="3" cy="3" r="3" transform="translate(631 128)" fill="#e7e7e7"/>
    </g>
    <g transform="translate(-547 52)">
      <circle id="Ellipse_1-185" data-name="Ellipse 1" cx="3" cy="3" r="3" transform="translate(631 128)" fill="#e7e7e7"/>
    </g>
    <g transform="translate(-526 52)">
      <circle id="Ellipse_1-186" data-name="Ellipse 1" cx="3" cy="3" r="3" transform="translate(631 128)" fill="#e7e7e7"/>
    </g>
    <g transform="translate(-505 52)">
      <circle id="Ellipse_1-187" data-name="Ellipse 1" cx="3" cy="3" r="3" transform="translate(631 128)" fill="#e7e7e7"/>
    </g>
    <g transform="translate(-484 52)">
      <circle id="Ellipse_1-188" data-name="Ellipse 1" cx="3" cy="3" r="3" transform="translate(631 128)" fill="#e7e7e7"/>
    </g>
    <g transform="translate(-463 52)">
      <circle id="Ellipse_1-189" data-name="Ellipse 1" cx="3" cy="3" r="3" transform="translate(631 128)" fill="#e7e7e7"/>
    </g>
    <g transform="translate(-442 52)">
      <circle id="Ellipse_1-190" data-name="Ellipse 1" cx="3" cy="3" r="3" transform="translate(631 128)" fill="#e7e7e7"/>
    </g>
    <g transform="translate(-421 52)">
      <circle id="Ellipse_1-191" data-name="Ellipse 1" cx="3" cy="3" r="3" transform="translate(631 128)" fill="#e7e7e7"/>
    </g>
    <g transform="translate(-400 52)">
      <circle id="Ellipse_1-192" data-name="Ellipse 1" cx="3" cy="3" r="3" transform="translate(631 128)" fill="#e7e7e7"/>
    </g>
    <g transform="translate(-379 52)">
      <circle id="Ellipse_1-193" data-name="Ellipse 1" cx="3" cy="3" r="3" transform="translate(631 128)" fill="#e7e7e7"/>
    </g>
    <g transform="translate(-358 52)">
      <circle id="Ellipse_1-194" data-name="Ellipse 1" cx="3" cy="3" r="3" transform="translate(631 128)" fill="#e7e7e7"/>
    </g>
    <g transform="translate(-337 52)">
      <circle id="Ellipse_1-195" data-name="Ellipse 1" cx="3" cy="3" r="3" transform="translate(631 128)" fill="#e7e7e7"/>
    </g>
    <g transform="translate(-316 52)">
      <circle id="Ellipse_1-196" data-name="Ellipse 1" cx="3" cy="3" r="3" transform="translate(631 128)" fill="#e7e7e7"/>
    </g>
    <g transform="translate(-295 52)">
      <circle id="Ellipse_1-197" data-name="Ellipse 1" cx="3" cy="3" r="3" transform="translate(631 128)" fill="#e7e7e7"/>
    </g>
    <g transform="translate(-274 52)">
      <circle id="Ellipse_1-198" data-name="Ellipse 1" cx="3" cy="3" r="3" transform="translate(631 128)" fill="#e7e7e7"/>
    </g>
    <g transform="translate(-631 70)">
      <circle id="Ellipse_1-199" data-name="Ellipse 1" cx="3" cy="3" r="3" transform="translate(631 128)" fill="#e7e7e7"/>
    </g>
    <g transform="translate(-610 70)">
      <circle id="Ellipse_1-200" data-name="Ellipse 1" cx="3" cy="3" r="3" transform="translate(631 128)" fill="#e7e7e7"/>
    </g>
    <g transform="translate(-589 70)">
      <circle id="Ellipse_1-201" data-name="Ellipse 1" cx="3" cy="3" r="3" transform="translate(631 128)" fill="#e7e7e7"/>
    </g>
    <g transform="translate(-568 70)">
      <circle id="Ellipse_1-202" data-name="Ellipse 1" cx="3" cy="3" r="3" transform="translate(631 128)" fill="#e7e7e7"/>
    </g>
    <g transform="translate(-547 70)">
      <circle id="Ellipse_1-203" data-name="Ellipse 1" cx="3" cy="3" r="3" transform="translate(631 128)" fill="#e7e7e7"/>
    </g>
    <g transform="translate(-526 70)">
      <circle id="Ellipse_1-204" data-name="Ellipse 1" cx="3" cy="3" r="3" transform="translate(631 128)" fill="#e7e7e7"/>
    </g>
    <g transform="translate(-505 70)">
      <circle id="Ellipse_1-205" data-name="Ellipse 1" cx="3" cy="3" r="3" transform="translate(631 128)" fill="#e7e7e7"/>
    </g>
    <g transform="translate(-484 70)">
      <circle id="Ellipse_1-206" data-name="Ellipse 1" cx="3" cy="3" r="3" transform="translate(631 128)" fill="#e7e7e7"/>
    </g>
    <g transform="translate(-463 70)">
      <circle id="Ellipse_1-207" data-name="Ellipse 1" cx="3" cy="3" r="3" transform="translate(631 128)" fill="#e7e7e7"/>
    </g>
    <g transform="translate(-442 70)">
      <circle id="Ellipse_1-208" data-name="Ellipse 1" cx="3" cy="3" r="3" transform="translate(631 128)" fill="#e7e7e7"/>
    </g>
    <g transform="translate(-421 70)">
      <circle id="Ellipse_1-209" data-name="Ellipse 1" cx="3" cy="3" r="3" transform="translate(631 128)" fill="#e7e7e7"/>
    </g>
    <g transform="translate(-400 70)">
      <circle id="Ellipse_1-210" data-name="Ellipse 1" cx="3" cy="3" r="3" transform="translate(631 128)" fill="#e7e7e7"/>
    </g>
    <g transform="translate(-379 70)">
      <circle id="Ellipse_1-211" data-name="Ellipse 1" cx="3" cy="3" r="3" transform="translate(631 128)" fill="#e7e7e7"/>
    </g>
    <g transform="translate(-358 70)">
      <circle id="Ellipse_1-212" data-name="Ellipse 1" cx="3" cy="3" r="3" transform="translate(631 128)" fill="#e7e7e7"/>
    </g>
    <g transform="translate(-337 70)">
      <circle id="Ellipse_1-213" data-name="Ellipse 1" cx="3" cy="3" r="3" transform="translate(631 128)" fill="#e7e7e7"/>
    </g>
    <g transform="translate(-316 70)">
      <circle id="Ellipse_1-214" data-name="Ellipse 1" cx="3" cy="3" r="3" transform="translate(631 128)" fill="#e7e7e7"/>
    </g>
    <g transform="translate(-295 70)">
      <circle id="Ellipse_1-215" data-name="Ellipse 1" cx="3" cy="3" r="3" transform="translate(631 128)" fill="#e7e7e7"/>
    </g>
    <g transform="translate(-274 70)">
      <circle id="Ellipse_1-216" data-name="Ellipse 1" cx="3" cy="3" r="3" transform="translate(631 128)" fill="#e7e7e7"/>
    </g>
    <g transform="translate(-631 88)">
      <circle id="Ellipse_1-217" data-name="Ellipse 1" cx="3" cy="3" r="3" transform="translate(631 128)" fill="#e7e7e7"/>
    </g>
    <g transform="translate(-610 88)">
      <circle id="Ellipse_1-218" data-name="Ellipse 1" cx="3" cy="3" r="3" transform="translate(631 128)" fill="#e7e7e7"/>
    </g>
    <g transform="translate(-589 88)">
      <circle id="Ellipse_1-219" data-name="Ellipse 1" cx="3" cy="3" r="3" transform="translate(631 128)" fill="#e7e7e7"/>
    </g>
    <g transform="translate(-568 88)">
      <circle id="Ellipse_1-220" data-name="Ellipse 1" cx="3" cy="3" r="3" transform="translate(631 128)" fill="#e7e7e7"/>
    </g>
    <g transform="translate(-547 88)">
      <circle id="Ellipse_1-221" data-name="Ellipse 1" cx="3" cy="3" r="3" transform="translate(631 128)" fill="#e7e7e7"/>
    </g>
    <g transform="translate(-526 88)">
      <circle id="Ellipse_1-222" data-name="Ellipse 1" cx="3" cy="3" r="3" transform="translate(631 128)" fill="#e7e7e7"/>
    </g>
    <g transform="translate(-505 88)">
      <circle id="Ellipse_1-223" data-name="Ellipse 1" cx="3" cy="3" r="3" transform="translate(631 128)" fill="#e7e7e7"/>
    </g>
    <g transform="translate(-484 88)">
      <circle id="Ellipse_1-224" data-name="Ellipse 1" cx="3" cy="3" r="3" transform="translate(631 128)" fill="#e7e7e7"/>
    </g>
    <g transform="translate(-463 88)">
      <circle id="Ellipse_1-225" data-name="Ellipse 1" cx="3" cy="3" r="3" transform="translate(631 128)" fill="#e7e7e7"/>
    </g>
    <g transform="translate(-442 88)">
      <circle id="Ellipse_1-226" data-name="Ellipse 1" cx="3" cy="3" r="3" transform="translate(631 128)" fill="#e7e7e7"/>
    </g>
    <g transform="translate(-421 88)">
      <circle id="Ellipse_1-227" data-name="Ellipse 1" cx="3" cy="3" r="3" transform="translate(631 128)" fill="#e7e7e7"/>
    </g>
    <g transform="translate(-400 88)">
      <circle id="Ellipse_1-228" data-name="Ellipse 1" cx="3" cy="3" r="3" transform="translate(631 128)" fill="#e7e7e7"/>
    </g>
    <g transform="translate(-379 88)">
      <circle id="Ellipse_1-229" data-name="Ellipse 1" cx="3" cy="3" r="3" transform="translate(631 128)" fill="#e7e7e7"/>
    </g>
    <g transform="translate(-358 88)">
      <circle id="Ellipse_1-230" data-name="Ellipse 1" cx="3" cy="3" r="3" transform="translate(631 128)" fill="#e7e7e7"/>
    </g>
    <g transform="translate(-337 88)">
      <circle id="Ellipse_1-231" data-name="Ellipse 1" cx="3" cy="3" r="3" transform="translate(631 128)" fill="#e7e7e7"/>
    </g>
    <g transform="translate(-316 88)">
      <circle id="Ellipse_1-232" data-name="Ellipse 1" cx="3" cy="3" r="3" transform="translate(631 128)" fill="#e7e7e7"/>
    </g>
    <g transform="translate(-295 88)">
      <circle id="Ellipse_1-233" data-name="Ellipse 1" cx="3" cy="3" r="3" transform="translate(631 128)" fill="#e7e7e7"/>
    </g>
    <g transform="translate(-274 88)">
      <circle id="Ellipse_1-234" data-name="Ellipse 1" cx="3" cy="3" r="3" transform="translate(631 128)" fill="#e7e7e7"/>
    </g>
    <g transform="translate(-631 106)">
      <circle id="Ellipse_1-235" data-name="Ellipse 1" cx="3" cy="3" r="3" transform="translate(631 128)" fill="#e7e7e7"/>
    </g>
    <g transform="translate(-610 106)">
      <circle id="Ellipse_1-236" data-name="Ellipse 1" cx="3" cy="3" r="3" transform="translate(631 128)" fill="#e7e7e7"/>
    </g>
    <g transform="translate(-589 106)">
      <circle id="Ellipse_1-237" data-name="Ellipse 1" cx="3" cy="3" r="3" transform="translate(631 128)" fill="#e7e7e7"/>
    </g>
    <g transform="translate(-568 106)">
      <circle id="Ellipse_1-238" data-name="Ellipse 1" cx="3" cy="3" r="3" transform="translate(631 128)" fill="#e7e7e7"/>
    </g>
    <g transform="translate(-547 106)">
      <circle id="Ellipse_1-239" data-name="Ellipse 1" cx="3" cy="3" r="3" transform="translate(631 128)" fill="#e7e7e7"/>
    </g>
    <g transform="translate(-526 106)">
      <circle id="Ellipse_1-240" data-name="Ellipse 1" cx="3" cy="3" r="3" transform="translate(631 128)" fill="#e7e7e7"/>
    </g>
    <g transform="translate(-505 106)">
      <circle id="Ellipse_1-241" data-name="Ellipse 1" cx="3" cy="3" r="3" transform="translate(631 128)" fill="#e7e7e7"/>
    </g>
    <g transform="translate(-484 106)">
      <circle id="Ellipse_1-242" data-name="Ellipse 1" cx="3" cy="3" r="3" transform="translate(631 128)" fill="#e7e7e7"/>
    </g>
    <g transform="translate(-463 106)">
      <circle id="Ellipse_1-243" data-name="Ellipse 1" cx="3" cy="3" r="3" transform="translate(631 128)" fill="#e7e7e7"/>
    </g>
    <g transform="translate(-442 106)">
      <circle id="Ellipse_1-244" data-name="Ellipse 1" cx="3" cy="3" r="3" transform="translate(631 128)" fill="#e7e7e7"/>
    </g>
    <g transform="translate(-421 106)">
      <circle id="Ellipse_1-245" data-name="Ellipse 1" cx="3" cy="3" r="3" transform="translate(631 128)" fill="#e7e7e7"/>
    </g>
    <g transform="translate(-400 106)">
      <circle id="Ellipse_1-246" data-name="Ellipse 1" cx="3" cy="3" r="3" transform="translate(631 128)" fill="#e7e7e7"/>
    </g>
    <g transform="translate(-379 106)">
      <circle id="Ellipse_1-247" data-name="Ellipse 1" cx="3" cy="3" r="3" transform="translate(631 128)" fill="#e7e7e7"/>
    </g>
    <g transform="translate(-358 106)">
      <circle id="Ellipse_1-248" data-name="Ellipse 1" cx="3" cy="3" r="3" transform="translate(631 128)" fill="#e7e7e7"/>
    </g>
    <g transform="translate(-337 106)">
      <circle id="Ellipse_1-249" data-name="Ellipse 1" cx="3" cy="3" r="3" transform="translate(631 128)" fill="#e7e7e7"/>
    </g>
    <g transform="translate(-316 106)">
      <circle id="Ellipse_1-250" data-name="Ellipse 1" cx="3" cy="3" r="3" transform="translate(631 128)" fill="#e7e7e7"/>
    </g>
    <g transform="translate(-295 106)">
      <circle id="Ellipse_1-251" data-name="Ellipse 1" cx="3" cy="3" r="3" transform="translate(631 128)" fill="#e7e7e7"/>
    </g>
    <g transform="translate(-274 106)">
      <circle id="Ellipse_1-252" data-name="Ellipse 1" cx="3" cy="3" r="3" transform="translate(631 128)" fill="#e7e7e7"/>
    </g>
    <g transform="translate(-631 124)">
      <circle id="Ellipse_1-253" data-name="Ellipse 1" cx="3" cy="3" r="3" transform="translate(631 128)" fill="#e7e7e7"/>
    </g>
    <g transform="translate(-610 124)">
      <circle id="Ellipse_1-254" data-name="Ellipse 1" cx="3" cy="3" r="3" transform="translate(631 128)" fill="#e7e7e7"/>
    </g>
    <g transform="translate(-589 124)">
      <circle id="Ellipse_1-255" data-name="Ellipse 1" cx="3" cy="3" r="3" transform="translate(631 128)" fill="#e7e7e7"/>
    </g>
    <g transform="translate(-568 124)">
      <circle id="Ellipse_1-256" data-name="Ellipse 1" cx="3" cy="3" r="3" transform="translate(631 128)" fill="#e7e7e7"/>
    </g>
    <g transform="translate(-547 124)">
      <circle id="Ellipse_1-257" data-name="Ellipse 1" cx="3" cy="3" r="3" transform="translate(631 128)" fill="#e7e7e7"/>
    </g>
    <g transform="translate(-526 124)">
      <circle id="Ellipse_1-258" data-name="Ellipse 1" cx="3" cy="3" r="3" transform="translate(631 128)" fill="#e7e7e7"/>
    </g>
    <g transform="translate(-505 124)">
      <circle id="Ellipse_1-259" data-name="Ellipse 1" cx="3" cy="3" r="3" transform="translate(631 128)" fill="#e7e7e7"/>
    </g>
    <g transform="translate(-484 124)">
      <circle id="Ellipse_1-260" data-name="Ellipse 1" cx="3" cy="3" r="3" transform="translate(631 128)" fill="#e7e7e7"/>
    </g>
    <g transform="translate(-463 124)">
      <circle id="Ellipse_1-261" data-name="Ellipse 1" cx="3" cy="3" r="3" transform="translate(631 128)" fill="#e7e7e7"/>
    </g>
    <g transform="translate(-442 124)">
      <circle id="Ellipse_1-262" data-name="Ellipse 1" cx="3" cy="3" r="3" transform="translate(631 128)" fill="#e7e7e7"/>
    </g>
    <g transform="translate(-421 124)">
      <circle id="Ellipse_1-263" data-name="Ellipse 1" cx="3" cy="3" r="3" transform="translate(631 128)" fill="#e7e7e7"/>
    </g>
    <g transform="translate(-400 124)">
      <circle id="Ellipse_1-264" data-name="Ellipse 1" cx="3" cy="3" r="3" transform="translate(631 128)" fill="#e7e7e7"/>
    </g>
    <g transform="translate(-379 124)">
      <circle id="Ellipse_1-265" data-name="Ellipse 1" cx="3" cy="3" r="3" transform="translate(631 128)" fill="#e7e7e7"/>
    </g>
    <g transform="translate(-358 124)">
      <circle id="Ellipse_1-266" data-name="Ellipse 1" cx="3" cy="3" r="3" transform="translate(631 128)" fill="#e7e7e7"/>
    </g>
    <g transform="translate(-337 124)">
      <circle id="Ellipse_1-267" data-name="Ellipse 1" cx="3" cy="3" r="3" transform="translate(631 128)" fill="#e7e7e7"/>
    </g>
    <g transform="translate(-316 124)">
      <circle id="Ellipse_1-268" data-name="Ellipse 1" cx="3" cy="3" r="3" transform="translate(631 128)" fill="#e7e7e7"/>
    </g>
    <g transform="translate(-295 124)">
      <circle id="Ellipse_1-269" data-name="Ellipse 1" cx="3" cy="3" r="3" transform="translate(631 128)" fill="#e7e7e7"/>
    </g>
    <g transform="translate(-274 124)">
      <circle id="Ellipse_1-270" data-name="Ellipse 1" cx="3" cy="3" r="3" transform="translate(631 128)" fill="#e7e7e7"/>
    </g>
    <g transform="translate(-631 142)">
      <circle id="Ellipse_1-271" data-name="Ellipse 1" cx="3" cy="3" r="3" transform="translate(631 128)" fill="#e7e7e7"/>
    </g>
    <g transform="translate(-610 142)">
      <circle id="Ellipse_1-272" data-name="Ellipse 1" cx="3" cy="3" r="3" transform="translate(631 128)" fill="#e7e7e7"/>
    </g>
    <g transform="translate(-589 142)">
      <circle id="Ellipse_1-273" data-name="Ellipse 1" cx="3" cy="3" r="3" transform="translate(631 128)" fill="#e7e7e7"/>
    </g>
    <g transform="translate(-568 142)">
      <circle id="Ellipse_1-274" data-name="Ellipse 1" cx="3" cy="3" r="3" transform="translate(631 128)" fill="#e7e7e7"/>
    </g>
    <g transform="translate(-547 142)">
      <circle id="Ellipse_1-275" data-name="Ellipse 1" cx="3" cy="3" r="3" transform="translate(631 128)" fill="#e7e7e7"/>
    </g>
    <g transform="translate(-526 142)">
      <circle id="Ellipse_1-276" data-name="Ellipse 1" cx="3" cy="3" r="3" transform="translate(631 128)" fill="#e7e7e7"/>
    </g>
    <g transform="translate(-505 142)">
      <circle id="Ellipse_1-277" data-name="Ellipse 1" cx="3" cy="3" r="3" transform="translate(631 128)" fill="#e7e7e7"/>
    </g>
    <g transform="translate(-484 142)">
      <circle id="Ellipse_1-278" data-name="Ellipse 1" cx="3" cy="3" r="3" transform="translate(631 128)" fill="#e7e7e7"/>
    </g>
    <g transform="translate(-463 142)">
      <circle id="Ellipse_1-279" data-name="Ellipse 1" cx="3" cy="3" r="3" transform="translate(631 128)" fill="#e7e7e7"/>
    </g>
    <g transform="translate(-442 142)">
      <circle id="Ellipse_1-280" data-name="Ellipse 1" cx="3" cy="3" r="3" transform="translate(631 128)" fill="#e7e7e7"/>
    </g>
    <g transform="translate(-421 142)">
      <circle id="Ellipse_1-281" data-name="Ellipse 1" cx="3" cy="3" r="3" transform="translate(631 128)" fill="#e7e7e7"/>
    </g>
    <g transform="translate(-400 142)">
      <circle id="Ellipse_1-282" data-name="Ellipse 1" cx="3" cy="3" r="3" transform="translate(631 128)" fill="#e7e7e7"/>
    </g>
    <g transform="translate(-379 142)">
      <circle id="Ellipse_1-283" data-name="Ellipse 1" cx="3" cy="3" r="3" transform="translate(631 128)" fill="#e7e7e7"/>
    </g>
    <g transform="translate(-358 142)">
      <circle id="Ellipse_1-284" data-name="Ellipse 1" cx="3" cy="3" r="3" transform="translate(631 128)" fill="#e7e7e7"/>
    </g>
    <g transform="translate(-337 142)">
      <circle id="Ellipse_1-285" data-name="Ellipse 1" cx="3" cy="3" r="3" transform="translate(631 128)" fill="#e7e7e7"/>
    </g>
    <g transform="translate(-316 142)">
      <circle id="Ellipse_1-286" data-name="Ellipse 1" cx="3" cy="3" r="3" transform="translate(631 128)" fill="#e7e7e7"/>
    </g>
    <g transform="translate(-295 142)">
      <circle id="Ellipse_1-287" data-name="Ellipse 1" cx="3" cy="3" r="3" transform="translate(631 128)" fill="#e7e7e7"/>
    </g>
    <g transform="translate(-274 142)">
      <circle id="Ellipse_1-288" data-name="Ellipse 1" cx="3" cy="3" r="3" transform="translate(631 128)" fill="#e7e7e7"/>
    </g>
  </g>
</svg>
